<svg width="1701" height="1631" viewBox="0 0 1701 1631" fill="none" xmlns="http://www.w3.org/2000/svg">
<path d="M174.116 1233L410.525 922.713L57.5481 756.662C57.0818 756.443 57.1247 755.751 57.6283 755.606L431.265 643.532L243.299 301.719C243.043 301.265 243.489 300.739 243.978 300.911L612.135 429.861L660.978 42.8435C661.046 42.3272 661.705 42.1649 662.001 42.593L884.048 363.313L1151.05 78.9228C1151.4 78.5443 1152.04 78.8052 1152.03 79.3259L1143.16 469.311L1526.32 396.176C1526.83 396.08 1527.19 396.667 1526.88 397.078L1290.47 707.366L1643.45 873.417C1643.92 873.635 1643.87 874.328 1643.37 874.473L1269.73 986.547L1457.7 1328.36C1457.95 1328.81 1457.51 1329.34 1457.02 1329.17L1088.86 1200.22L1040.03 1587.23C1039.96 1587.74 1039.3 1587.91 1039.01 1587.48L816.96 1266.76L549.953 1551.15C549.596 1551.52 548.959 1551.26 548.969 1550.74L557.843 1160.76L174.676 1233.89C174.167 1233.99 173.806 1233.4 174.117 1232.99L174.116 1233Z" fill="#EF4239"/>
<path d="M1163.35 943.014L1304.14 1199.04L1028.38 1102.45L991.786 1392.34L825.464 1152.11L625.473 1365.13L632.128 1073.02L345.117 1127.8L522.186 895.383L257.801 771.002L537.669 687.057L396.875 431.032L672.642 527.623L709.222 237.728L875.543 477.96L1075.53 264.94L1068.89 557.051L1355.9 502.273L1178.82 734.687L1443.22 859.06L1163.35 943.014Z" fill="#F7BE1B"/>
<path d="M1024.33 886.146L1102.57 1028.4L949.338 974.733L929.008 1135.81L836.593 1002.33L725.47 1120.69L729.168 958.382L569.693 988.819L668.079 859.68L521.177 790.569L676.683 743.925L598.452 601.668L751.679 655.338L772.004 494.261L864.419 627.743L975.542 509.381L971.849 671.689L1131.32 641.252L1032.93 770.391L1179.84 839.497L1024.33 886.146Z" fill="white"/>
</svg>
