<svg width="118" height="95" viewBox="0 0 118 95" fill="none" xmlns="http://www.w3.org/2000/svg">
<path d="M115.1 12.8501V61.8133L114.202 63.9648L95.4453 93.0238" stroke="white" stroke-width="4" stroke-miterlimit="10"/>
<path d="M115.639 0H22.8323C21.9395 0 21.2139 0.723448 21.2139 1.61364V62.5608L0 93.9784H97.3925L116.767 63.9647L117.258 63.2036V1.61364C117.258 0.723448 116.53 0 115.639 0ZM96.2165 91.8269H4.05398L22.8673 63.9647H114.202L96.2165 91.8269ZM23.3717 61.8132V12.85H115.1V61.8132H23.3717Z" fill="#282560"/>
<path d="M72.2088 75.7954H46.7359L39.5234 86.4777H65.3146L72.2088 75.7954Z" fill="#282560"/>
<path d="M64.8523 42.1294L59.3068 35.4328L57.6426 36.8017L64.8335 45.4858L80.8201 26.6089L79.1721 25.2212L64.8523 42.1294Z" fill="#282560"/>
</svg>
