<svg width="83" height="105" viewBox="0 0 83 105" fill="none" xmlns="http://www.w3.org/2000/svg">
<path d="M80.6321 2.15137V91.6761H12.9229" stroke="white" stroke-width="4" stroke-miterlimit="10"/>
<path d="M63.1267 19.5628L61.476 18.175L47.159 35.0833L41.6134 28.384L39.9492 29.7529L47.1401 38.4397L63.1267 19.5628Z" fill="#282560"/>
<path d="M10.7647 0V5.3788H5.38641V10.7495H0V104.558H72.0221V99.1851H77.4112V93.8278H82.7896V0H10.7647ZM69.8643 102.407H2.1578V12.9011H5.38641V99.1851H69.8643V102.407ZM80.6318 91.6763H12.9225V2.15152H80.6318V91.6763Z" fill="#282560"/>
<path d="M70.0236 47.1345H24.3105V49.286H70.0236V47.1345Z" fill="#282560"/>
<path d="M70.0236 56.7141H24.3105V58.8656H70.0236V56.7141Z" fill="#282560"/>
<path d="M70.0236 66.2964H24.3105V68.4479H70.0236V66.2964Z" fill="#282560"/>
</svg>
