<svg width="118" height="95" viewBox="0 0 118 95" fill="none" xmlns="http://www.w3.org/2000/svg">
<path d="M115.097 12.8501V61.8133L114.199 63.9648L95.4424 93.0238" stroke="white" stroke-width="4" stroke-miterlimit="10"/>
<path d="M115.637 0H22.8323C21.9395 0 21.2139 0.723449 21.2139 1.61364V62.5608L0 93.9811H97.3925L116.764 63.9647L117.255 63.2036V1.61364C117.255 0.723449 116.53 0 115.637 0ZM96.2165 91.8296H4.05398L22.8673 63.9647H114.199L96.2165 91.8296ZM23.3717 61.8132V12.85H115.097V61.8132H23.3717Z" fill="#282560"/>
<path d="M72.2086 75.7954H46.7357L39.5205 86.4777H65.3117L72.2086 75.7954Z" fill="#282560"/>
<path d="M72.7581 31.1136C70.4466 25.8558 64.2752 23.4515 59.0048 25.7563C53.7317 28.0611 51.3203 34.2117 53.6319 39.4695C55.3473 43.3718 59.1882 45.7009 63.2098 45.7009C64.607 45.7009 66.0258 45.4185 67.3852 44.8268C69.1924 44.0361 70.665 42.7936 71.7251 41.2903L87.8331 49.6624L88.8311 47.7556L72.777 39.4104C73.8829 36.85 73.9665 33.8594 72.7581 31.1136ZM66.5193 42.8555C62.3359 44.6843 57.4404 42.7775 55.6063 38.6062C53.7721 34.435 55.6845 29.5537 59.8679 27.7249C64.0514 25.8961 68.9469 27.8029 70.781 31.9742C72.6152 36.1454 70.7028 41.0267 66.5193 42.8555Z" fill="#282560"/>
</svg>
