<svg width="1200" height="177" viewBox="0 0 1200 177" fill="none" xmlns="http://www.w3.org/2000/svg">
<path d="M178.188 3.11236H100.524L74.5497 69.5624H74.0346V3.11236H0V173.888H74.0346V123.796L76.1071 120.426L95.324 173.888H184.161L137.142 76.8287L178.188 3.11236Z" fill="#282560"/>
<path d="M232.736 3.11236L185.203 173.888H257.668L260.991 151.047H286.046L289.099 173.888H378.978L331.433 3.11236H232.724H232.736ZM265.921 117.314L273.255 66.9647H274.812L281.545 117.314H265.921Z" fill="#282560"/>
<path d="M588.586 58.9142H588.328L548.325 3.11236H385.208V173.888H478.202V108.491H478.717L525.735 173.888H681.579V3.11236H588.586V58.9142Z" fill="#282560"/>
<path d="M888.342 85.1242C882.112 78.5564 874.226 73.9614 864.71 71.3637C855.181 68.7659 842.538 66.6951 826.791 65.1389C813.289 63.5828 803.846 62.4187 798.475 61.6345C793.103 60.8625 789.559 59.9435 787.83 58.9142C786.101 57.8727 785.23 56.4145 785.23 54.503C785.23 52.9468 785.623 51.5622 786.395 50.3491C787.18 49.136 788.689 48.1435 790.945 47.3593C793.189 46.5873 796.145 46.1952 799.775 46.1952C803.405 46.1952 806.311 46.7099 808.997 47.7514C811.683 48.7929 813.584 50.3001 814.712 52.2974C815.84 54.2825 816.404 56.5861 816.404 59.1716H890.954C890.954 47.0652 888.354 36.7234 883.166 28.1583C877.967 19.5931 868.266 12.7558 854.078 7.65836C839.876 2.56096 819.789 0 793.815 0C770.956 0 751.776 2.64673 736.275 7.91568C720.773 13.1969 709.344 20.4631 701.986 29.7144C694.628 38.978 690.949 49.6629 690.949 61.7693C690.949 73.8756 694.027 83.3107 700.171 90.0623C706.315 96.8139 714.2 101.568 723.803 104.337C733.417 107.107 745.926 109.263 761.341 110.82C774.843 112.376 784.114 113.589 789.13 114.459C794.146 115.329 797.396 116.236 798.867 117.179C800.339 118.135 801.075 119.728 801.075 121.982C801.075 123.539 800.682 124.972 799.91 126.259C799.125 127.558 797.739 128.636 795.752 129.506C793.766 130.376 791.031 130.805 787.573 130.805C783.415 130.805 780.166 130.155 777.836 128.856C775.493 127.558 773.813 125.916 772.771 123.931C771.728 121.946 771.213 119.483 771.213 116.53H691.991V116.787C691.991 127.166 694.37 136.686 699.141 145.337C703.899 153.988 713.685 161.426 728.487 167.663C743.289 173.888 764.726 177 792.772 177C820.819 177 842.82 174.059 858.235 168.178C873.65 162.296 884.086 154.723 889.531 145.472C894.988 136.221 897.711 125.536 897.711 113.417C897.711 101.299 894.596 91.7043 888.366 85.1242H888.342Z" fill="#282560"/>
<path d="M944.19 3.11236L896.656 173.888H969.121L972.445 151.047H997.499L1000.55 173.888H1090.43L1042.89 3.11236H944.177H944.19ZM977.374 117.314L984.708 66.9647H986.266L992.998 117.314H977.374Z" fill="#282560"/>
<path d="M1195.49 94.6083C1193.15 88.2978 1189.69 83.323 1185.11 79.6837C1180.52 76.0567 1174.33 73.0301 1166.54 70.604C1158.57 68.1778 1153.24 66.3643 1150.56 65.1512C1147.87 63.9381 1146.18 62.5535 1145.49 60.9973C1144.8 59.4411 1144.45 56.6719 1144.45 52.6895C1144.45 50.0918 1144.54 47.8862 1144.71 46.0727C1144.88 44.2592 1145.14 43.0461 1145.49 42.4334C1145.84 41.833 1146.37 41.5267 1147.05 41.5267C1147.74 41.5267 1148.27 41.9556 1148.61 42.8256C1148.95 43.6955 1149.21 45.6438 1149.38 48.6704C1149.55 51.697 1149.64 55.6426 1149.64 60.4827H1195.87C1195.87 45.9502 1194.32 34.3952 1191.2 25.8301C1188.09 17.265 1182.63 10.9913 1174.84 7.00893C1167.05 3.02658 1156.05 1.04154 1141.85 1.04154C1130.25 1.04154 1120.38 3.16137 1112.24 7.40104C1104.09 11.6407 1097.9 17.9512 1093.67 26.3448C1089.43 34.7383 1087.3 44.9944 1087.3 57.1007C1087.3 66.4378 1088.47 74.3167 1090.81 80.713C1093.15 87.1215 1096.66 92.3047 1101.33 96.287C1106.01 100.269 1112.06 103.382 1119.52 105.624C1127.66 108.05 1133.07 109.864 1135.76 111.077C1138.44 112.29 1140.12 113.626 1140.82 115.096C1141.51 116.566 1141.86 119.213 1141.86 123.012C1141.86 126.124 1141.78 128.685 1141.61 130.67C1141.44 132.655 1141.18 133.954 1140.82 134.567C1140.48 135.179 1140.04 135.473 1139.52 135.473C1138.65 135.473 1138.05 134.995 1137.71 134.04C1137.36 133.096 1137.09 130.927 1136.93 127.558C1136.76 124.188 1136.68 119.985 1136.68 114.973H1087.33V115.488C1087.33 129.334 1088.97 140.62 1092.26 149.356C1095.55 158.093 1101.17 164.71 1109.15 169.207C1117.1 173.704 1128.02 175.958 1141.88 175.958C1155.73 175.958 1166.29 174.047 1174.61 170.248C1182.92 166.45 1189.07 160.384 1193.05 152.077C1197.04 143.769 1199.02 132.961 1199.02 119.63C1199.02 109.251 1197.86 100.907 1195.52 94.5838L1195.49 94.6083Z" fill="#282560"/>
</svg>
