<?xml version="1.0" encoding="UTF-8"?>
<svg id="Layer_2" data-name="Layer 2" xmlns="http://www.w3.org/2000/svg" viewBox="0 0 206.74 45.13">
  <defs>
    <style>
      .cls-1 {
        fill: #fff;
        stroke-width: 0px;
      }
    </style>
  </defs>
  <g id="Layer_1-2" data-name="Layer 1">
    <g>
      <path class="cls-1" d="M8.74,32.71c2.02-.04,3.83-.66,5.44-1.87,1.6-1.21,3.11-2.75,4.52-4.63,1.41-1.88,2.76-3.94,4.06-6.2,1.3-2.25,2.65-4.45,4.06-6.58,1.41-2.13,2.91-4.04,4.52-5.74,1.6-1.7,3.4-2.94,5.39-3.73-1.59-.25-3.36-.27-5.3-.05-1.95.22-3.79.66-5.52,1.33-1.73.67-3.2,1.56-4.41,2.68-1.21,1.12-1.89,2.45-2.03,4.01-.04.51.07.93.32,1.27.25.34.68.57,1.3.68.4.07.95-.02,1.65-.27.7-.25,1.52-.96,2.46-2.11.25,1.01.13,2.08-.38,3.19-.51,1.12-1.25,2.16-2.25,3.11-.99.96-2.15,1.73-3.46,2.33-1.32.6-2.64.89-3.98.89-1.41.18-2.68.1-3.82-.24-1.14-.34-2.09-.86-2.87-1.54-.78-.69-1.34-1.51-1.68-2.46-.34-.96-.42-1.98-.24-3.06.36-2.06,1.37-3.95,3.03-5.68,1.66-1.73,3.72-3.21,6.17-4.44,2.45-1.23,5.16-2.16,8.12-2.79C26.79.18,29.75-.08,32.71.02c3.03.14,5.65.53,7.85,1.16,2.2.63,3.98,1.42,5.33,2.35,1.35.94,2.3,2.01,2.84,3.22.54,1.21.67,2.46.38,3.76-.32,1.44-1.22,2.81-2.68,4.09-1.46,1.28-3.35,2.23-5.66,2.84,1.01.76,1.92,1.62,2.73,2.57.81.96,1.5,1.98,2.06,3.06.56,1.08.96,2.2,1.22,3.36.25,1.16.31,2.29.16,3.41,0,.87-.22,1.79-.65,2.76-.69,1.8-1.63,3.45-2.84,4.92-1.21,1.48-2.62,2.76-4.25,3.84s-3.44,1.95-5.44,2.6-4.1,1.03-6.31,1.14c-1.77.11-3.42-.17-4.95-.84-1.53-.67-2.81-1.54-3.82-2.63-1.66,1.3-3.5,2.23-5.52,2.79-2.02.56-4.29.6-6.82.14-1.98-.36-3.49-1.15-4.52-2.35-1.03-1.21-1.62-2.58-1.79-4.11-.16-1.53.07-3.12.7-4.76.63-1.64,1.63-3.09,3-4.36.5,1.59,1.15,2.62,1.92,3.08.78.47,1.79.69,3.06.65ZM32.33,18.43c-1.19,2.78-2.39,5.57-3.6,8.36-1.21,2.8-2.57,5.4-4.09,7.82,1.52.22,2.99.05,4.44-.49,1.44-.54,2.73-1.3,3.87-2.27,1.14-.97,2.06-2.09,2.76-3.36.7-1.26,1.08-2.52,1.14-3.79.05-1.26-.27-2.45-.97-3.57-.7-1.12-1.89-2.02-3.55-2.71ZM39.91,5c-1.08,1.19-2.09,2.59-3.03,4.19-.94,1.61-1.84,3.33-2.71,5.17,1.15,0,2.16-.14,3-.43.85-.29,1.57-.64,2.16-1.06.6-.41,1.07-.84,1.43-1.27.36-.43.63-.81.81-1.14.61-1.26.73-2.34.35-3.25-.38-.9-1.06-1.64-2.03-2.22Z"/>
      <g>
        <g>
          <path class="cls-1" d="M91.22,22.86c0-1.56.07-3.02.72-3.74-2.12.41-3.52,1.86-3.52,3.8,0,3.31,3.44,3.68,3.69,3.71-.77-.73-.89-2.26-.89-3.76h0Z"/>
          <path class="cls-1" d="M74.96,20.07c-2.85-1.16-4.5-2.28-4.5-4.55,0-1.19.44-2.09,1.1-2.67-1.99.85-3.25,2.76-3.25,5.22,0,3.03,2.04,4.13,4.7,5.26,2.46,1.03,4.67,2.19,4.67,5.03,0,1.08-.38,2.21-1.18,2.94,2.17-1.01,3.17-3.36,3.17-5.69,0-3.24-2.04-4.38-4.7-5.54h0Z"/>
          <path class="cls-1" d="M85.52,18.88l-3.55.14c.31.3.45,1.02.45,1.63v9.67c0,.43-.1.74-.29.95h3.63c-.17-.22-.25-.52-.25-.95v-11.44h0Z"/>
          <path class="cls-1" d="M104.54,18.92l-3.51.14c.36.35.44.85.44,1.38v9.88c0,.43-.09.74-.26.95h3.61c-.16-.22-.26-.52-.26-.95l-.03-11.4h0Z"/>
          <path class="cls-1" d="M117.38,27.85c0-1.36.36-2.24,1.24-2.81-1.13.17-2.28.36-3.18.93-.8.52-1.32,1.49-1.32,2.46,0,1.4.81,3.03,3.09,3.03.92,0,1.71-.31,2.43-.95-.12.03-.25.04-.38.04-.44,0-1.87-.2-1.87-2.7h0Z"/>
          <path class="cls-1" d="M130.95,12.51l-3.5.14c.31.32.4.78.4,1.35v16.31c0,.43-.09.74-.26.95h3.62c-.18-.22-.26-.52-.26-.95V12.51h0Z"/>
          <path class="cls-1" d="M158.7,22.22c0-2.13-.86-3.17-2.62-3.17-1.08,0-1.96.48-2.63,1.06.12-.03.25-.04.38-.04.53,0,1.76.21,1.76,2.18v8.06c0,.43-.1.74-.26.95h3.61c-.17-.22-.26-.52-.26-.95v-8.09h0Z"/>
          <path class="cls-1" d="M151.5,12.51l-3.5.14c.31.32.4.78.4,1.35v16.31c0,.43-.09.74-.25.95h3.61c-.16-.22-.26-.52-.26-.95V12.51h0Z"/>
          <path class="cls-1" d="M167.11,19.08s.05.05.07.07c1.01,1.11.93,3.9.8,5.46v.08s3.11,0,3.11,0c0-1.81-.52-3.35-1.48-4.36-.66-.69-1.5-1.12-2.49-1.26h0Z"/>
          <path class="cls-1" d="M176.07,25.22c0-3.21.19-5.25,1.06-6.12-2.68.55-4.35,2.84-4.35,6.14s1.69,5.67,4.5,6.15c-.98-.87-1.2-3.03-1.2-6.18h0Z"/>
          <path class="cls-1" d="M179.35,19.06c.98.87,1.2,3.01,1.2,6.15s-.2,5.28-1.09,6.16c2.7-.54,4.38-2.85,4.38-6.18s-1.69-5.65-4.5-6.13h0Z"/>
          <path class="cls-1" d="M189.32,18.92l-3.5.14c.36.34.43.84.43,1.35v9.91c0,.43-.09.74-.26.95h3.68c-.22-.22-.33-.54-.33-1.01l-.03-11.34h0Z"/>
          <path class="cls-1" d="M199.75,19.22s.06-.09.1-.13h-4.31c.38.32.66.83,1,1.68h0s4.68,11.53,4.68,11.53l1.43-3.93-2.84-7.62c-.18-.47-.34-1.07-.06-1.52h0Z"/>
          <path class="cls-1" d="M97.84,15.78c-.9,0-1.64.73-1.64,1.64s.73,1.64,1.64,1.64,1.64-.73,1.64-1.64-.73-1.64-1.64-1.64h0Z"/>
          <polygon class="cls-1" points="203.22 19.08 204.75 23.98 206.74 19.1 203.22 19.08 203.22 19.08"/>
          <path class="cls-1" d="M83.86,16.13c.9,0,1.64-.73,1.64-1.64s-.73-1.64-1.64-1.64-1.64.73-1.64,1.64.73,1.64,1.64,1.64h0Z"/>
          <path class="cls-1" d="M192.36,19.17c-.9,0-1.64.73-1.64,1.64s.73,1.64,1.64,1.64,1.64-.73,1.64-1.64-.73-1.64-1.64-1.64h0Z"/>
          <path class="cls-1" d="M197.96,33.34c-.9,0-1.64.73-1.64,1.64s.73,1.64,1.64,1.64,1.64-.73,1.64-1.64-.73-1.64-1.64-1.64h0Z"/>
          <path class="cls-1" d="M143.89,12.86h-3.44v17.36c0,.48-.09.82-.28,1.06h4c-.18-.24-.29-.58-.29-1.06V12.86h0Z"/>
          <path class="cls-1" d="M95.06,22.88c0,1.56-.07,3.02-.72,3.74,2.12-.41,3.52-1.86,3.52-3.8,0-3.31-3.44-3.68-3.69-3.71.77.73.89,2.26.89,3.76h0Z"/>
          <path class="cls-1" d="M94.58,28.82h-2.51c-3.14,0-2.31-1.85-2.31-1.85-.04.02-1.49.53-1.49,2.06,0,2.1,2.14,2.18,2.47,2.18.96,0,3.12,0,3.12,0,.76,0,3.06,0,3.06,2.12,0,.67-.18,1.25-.53,1.71,1.35-.81,2.05-2.01,2.05-3.21,0-2.02-1.26-3-3.86-3h0Z"/>
          <path class="cls-1" d="M116.53,22.62c.9,0,1.64-.73,1.64-1.64s-.73-1.64-1.64-1.64-1.64.73-1.64,1.64.73,1.64,1.64,1.64h0Z"/>
          <path class="cls-1" d="M124.67,30.78c-.49-.35-.56-1.04-.56-1.6v-6.21c0-2.66-1.18-3.83-4.06-3.94.68.42,1.02,1.32,1.02,2.69v7.5c0,1.35.94,2.19,2.45,2.19,0,0,1.2.01,1.66-.44-.18-.02-.35-.08-.51-.19h0Z"/>
          <path class="cls-1" d="M164.01,25.22s-.02-4.99,1.12-6.13c-2.65.54-4.36,2.95-4.36,6.32,0,7.1,6.5,6.28,7.54,5.7-.14.02-4.3.73-4.3-5.89h0Z"/>
          <path class="cls-1" d="M111.71,22.22c0-2.84-1.48-3.17-2.59-3.17s-1.97.48-2.63,1.07c.14-.03,2.12-.49,2.12,2.13v8.06c0,.43-.1.74-.26.95h3.61c-.17-.22-.26-.52-.26-.95v-8.09h0Z"/>
          <polygon class="cls-1" points="74.73 12.86 78.65 12.86 78.65 16.82 74.73 12.86 74.73 12.86"/>
          <polygon class="cls-1" points="138.8 12.86 134.88 12.86 134.88 16.77 138.8 12.86 138.8 12.86"/>
          <polygon class="cls-1" points="73.18 31.27 68.54 31.27 68.54 26.62 73.18 31.27 73.18 31.27"/>
          <polygon class="cls-1" points="91.54 34.98 88.43 34.98 88.43 31.86 91.54 34.98 91.54 34.98"/>
        </g>
        <g>
          <path class="cls-1" d="M57.63,22.48c.41.37.62.92.62,1.66v2.83h-1.35v-.62c-.27.46-.77.69-1.51.69-.38,0-.71-.06-.99-.19-.28-.13-.49-.31-.64-.53s-.22-.49-.22-.77c0-.46.17-.82.52-1.09.35-.26.88-.4,1.61-.4h1.14c0-.31-.1-.56-.29-.72s-.48-.25-.86-.25c-.26,0-.52.04-.78.12-.26.08-.47.19-.65.34l-.52-1.01c.27-.19.59-.34.97-.44.38-.1.77-.16,1.17-.16.77,0,1.36.18,1.77.55ZM56.4,25.91c.19-.11.33-.28.41-.5v-.51h-.99c-.59,0-.88.19-.88.58,0,.18.07.33.22.44.14.11.34.16.59.16s.46-.06.65-.17Z"/>
          <path class="cls-1" d="M62.75,26.73c-.14.1-.32.18-.52.24-.21.05-.42.08-.65.08-.59,0-1.05-.15-1.37-.45-.32-.3-.48-.74-.48-1.33v-2.04h-.77v-1.11h.77v-1.21h1.44v1.21h1.24v1.11h-1.24v2.02c0,.21.05.37.16.48s.26.17.46.17c.23,0,.42-.06.58-.18l.39,1.01Z"/>
        </g>
      </g>
    </g>
  </g>
</svg>