<svg width="25" height="24" viewBox="0 0 25 24" fill="none" xmlns="http://www.w3.org/2000/svg">
<path d="M4.43309 16.9558C5.45758 16.9391 6.37708 16.6176 7.19244 15.9916C8.00723 15.3659 8.77267 14.5667 9.48762 13.5944C10.2028 12.6224 10.8904 11.5513 11.5508 10.3822C12.2113 9.2134 12.8994 8.07728 13.6144 6.97327C14.3296 5.86985 15.0947 4.87913 15.9107 4.00025C16.7258 3.12195 17.6373 2.47753 18.6441 2.067C17.839 1.93502 16.9429 1.92363 15.9549 2.0343C14.9669 2.14496 14.0335 2.37271 13.1548 2.71755C12.2761 3.06268 11.5297 3.52489 10.9161 4.10391C10.3018 4.6835 9.95778 5.3758 9.8836 6.18052C9.86477 6.44302 9.91926 6.66289 10.0471 6.84071C10.1746 7.01911 10.3937 7.1362 10.7052 7.19284C10.9061 7.2308 11.1854 7.18467 11.5423 7.05386C11.8992 6.92392 12.3157 6.55923 12.7927 5.96066C12.9197 6.48536 12.8549 7.03751 12.5979 7.61739C12.3405 8.19757 11.9602 8.73542 11.4564 9.23034C10.952 9.72584 10.3663 10.127 9.69816 10.4351C9.02972 10.7428 8.357 10.8961 7.68058 10.895C6.96677 10.9878 6.32201 10.9443 5.74629 10.7653C5.17029 10.5866 4.68586 10.3192 4.2933 9.96264C3.90017 9.60642 3.61773 9.17982 3.44456 8.68344C3.27138 8.18736 3.23116 7.65798 3.32359 7.09649C3.50818 6.02957 4.02199 5.04761 4.86503 4.15033C5.70778 3.25305 6.75166 2.48746 7.99696 1.85268C9.24198 1.21848 10.6148 0.738745 12.1154 0.41347C13.6164 0.0881959 15.1167 -0.0452425 16.6171 0.013447C18.1536 0.0911158 19.4794 0.294631 20.5949 0.623994C21.7101 0.953648 22.6105 1.36243 23.2958 1.85034C23.981 2.33855 24.4603 2.89624 24.7336 3.52373C25.0069 4.15179 25.07 4.80205 24.9225 5.47596C24.7567 6.22491 24.3026 6.93093 23.5608 7.59404C22.8187 8.25772 21.8619 8.74739 20.6908 9.06361C21.202 9.4575 21.6636 9.90337 22.0744 10.4C22.4852 10.897 22.8316 11.4264 23.1146 11.9885C23.397 12.5505 23.6019 13.1316 23.7291 13.7307C23.8558 14.3305 23.8823 14.9203 23.8084 15.5002C23.8076 15.9496 23.6972 16.427 23.4769 16.9321C23.1277 17.8679 22.6461 18.7188 22.0322 19.4852C21.4177 20.2517 20.699 20.9154 19.8748 21.4757C19.0506 22.036 18.1305 22.484 17.1149 22.8192C16.099 23.1544 15.0328 23.3491 13.9171 23.4034C13.0204 23.4583 12.1836 23.3115 11.4071 22.964C10.6299 22.6159 9.98574 22.161 9.47478 21.5984C8.63202 22.2708 7.69826 22.7511 6.67349 23.0399C5.64815 23.3284 4.49586 23.3494 3.21575 23.1041C2.20981 22.9152 1.44694 22.5067 0.926569 21.8787C0.406196 21.2503 0.105498 20.5384 0.0244746 19.7425C-0.0565484 18.9468 0.0635597 18.1234 0.385369 17.2717C0.706608 16.4205 1.21557 15.6681 1.91197 15.0137C2.16673 15.8383 2.49025 16.3724 2.88339 16.6162C3.27623 16.8603 3.79261 16.9736 4.43338 16.9558H4.43309ZM16.4091 9.56203C15.8031 11.003 15.1923 12.4483 14.5772 13.8981C13.9616 15.3481 13.2692 16.6997 12.4989 17.9526C13.2672 18.0662 14.0172 17.9833 14.7493 17.7038C15.4813 17.4241 16.1361 17.032 16.7132 16.5274C17.2901 16.0229 17.7577 15.4435 18.1154 14.7886C18.4732 14.134 18.6663 13.4793 18.6948 12.8235C18.7234 12.1686 18.5596 11.5505 18.2039 10.9691C17.8481 10.3884 17.2493 9.91914 16.4088 9.56174L16.4091 9.56203ZM20.2622 2.60367C19.7125 3.22064 19.199 3.94536 18.722 4.77752C18.2447 5.60998 17.7862 6.50317 17.3454 7.45739C17.9306 7.45826 18.4384 7.38468 18.8689 7.23518C19.2988 7.08627 19.6651 6.90436 19.9675 6.68946C20.2697 6.47485 20.5122 6.25498 20.6956 6.03073C20.8788 5.80619 21.0163 5.60998 21.1081 5.4415C21.42 4.78687 21.4807 4.22537 21.2893 3.75673C21.0979 3.28868 20.7555 2.90413 20.2622 2.60367Z" fill="#282560"/>
</svg>
