<svg width="1100" height="186" viewBox="0 0 1100 186" fill="none" xmlns="http://www.w3.org/2000/svg">
<path d="M0 3.27661H121.285L141.45 71.7316L161.344 3.27661H267.906V182.735H185.597L185.868 80.1942H186.139L155.066 182.735H97.8338L66.4907 80.1942L67.3034 182.735H0V3.27661Z" fill="#282560"/>
<path d="M282.359 3.27661H334.138V182.735H282.359V3.27661Z" fill="#282560"/>
<path d="M361.806 177.82C354.444 173.283 349.274 166.458 346.27 157.371C343.266 148.284 341.771 136.097 341.771 120.822V120.279H386.742C386.742 127.375 386.836 132.962 387.012 137.051C387.189 141.141 387.554 143.781 388.108 144.96C388.65 146.139 389.651 146.728 391.111 146.728C391.83 146.728 392.478 146.363 393.02 145.632C393.561 144.913 393.974 143.357 394.245 141C394.515 138.643 394.657 135.366 394.657 131.182C394.657 126.456 394.292 123.132 393.561 121.222C392.831 119.313 391.111 117.545 388.379 115.907C385.658 114.268 380.204 111.817 372.03 108.54C364.763 105.629 358.897 102.046 354.456 97.7676C350.004 93.501 346.776 88.1382 344.786 81.6793C342.783 75.2322 341.782 67.3589 341.782 58.083C341.782 45.5424 343.738 34.9936 347.648 26.4486C351.559 17.9035 357.318 11.586 364.951 7.49614C372.584 3.40629 381.853 1.35547 392.749 1.35547C406.377 1.35547 416.777 3.35914 423.95 7.35471C431.124 11.3503 436.165 17.9506 439.074 27.1322C441.984 36.3137 443.432 48.9958 443.432 65.1784H401.182C401.182 57.9063 401.041 52.3195 400.77 48.4065C400.499 44.4934 400.134 41.9947 399.675 40.9104C399.215 39.8142 398.45 39.2721 397.354 39.2721C396.259 39.2721 395.493 39.6846 395.034 40.4979C394.574 41.3111 394.221 42.8669 393.938 45.1299C393.667 47.4046 393.526 50.4455 393.526 54.2643C393.526 58.9906 393.891 62.4086 394.621 64.4948C395.34 66.5928 397.024 68.455 399.663 70.0815C402.289 71.7198 407.613 74.1714 415.611 77.448C423.42 80.536 429.463 84.0365 433.738 87.9496C438.002 91.8627 441.183 96.9544 443.279 103.225C445.364 109.495 446.412 117.816 446.412 128.176C446.412 141.636 444.551 152.539 440.829 160.907C437.107 169.275 431.383 175.322 423.656 179.046C415.929 182.771 405.623 184.633 392.725 184.633C379.827 184.633 369.144 182.358 361.794 177.809L361.806 177.82Z" fill="#282560"/>
<path d="M471.642 177.82C464.281 173.283 459.11 166.458 456.106 157.371C453.103 148.284 451.607 136.097 451.607 120.822V120.279H496.578C496.578 127.375 496.672 132.962 496.849 137.051C497.026 141.141 497.391 143.781 497.944 144.96C498.486 146.139 499.487 146.728 500.948 146.728C501.666 146.728 502.314 146.363 502.856 145.632C503.398 144.913 503.81 143.357 504.081 141C504.352 138.643 504.493 135.366 504.493 131.182C504.493 126.456 504.128 123.132 503.398 121.222C502.668 119.313 500.948 117.545 498.215 115.907C495.494 114.268 490.041 111.817 481.866 108.54C474.599 105.629 468.733 102.046 464.293 97.7676C459.84 93.501 456.613 88.1382 454.622 81.6793C452.62 75.2322 451.619 67.3589 451.619 58.083C451.619 45.5424 453.574 34.9936 457.484 26.4486C461.395 17.9035 467.155 11.586 474.787 7.49614C482.42 3.40629 491.69 1.35547 502.585 1.35547C516.213 1.35547 526.614 3.35914 533.787 7.35471C540.96 11.3503 546.001 17.9506 548.911 27.1322C551.82 36.3137 553.269 48.9958 553.269 65.1784H511.019C511.019 57.9063 510.877 52.3195 510.606 48.4065C510.335 44.4934 509.97 41.9947 509.511 40.9104C509.052 39.8142 508.286 39.2721 507.191 39.2721C506.095 39.2721 505.33 39.6846 504.87 40.4979C504.411 41.3111 504.057 42.8669 503.775 45.1299C503.504 47.4046 503.362 50.4455 503.362 54.2643C503.362 58.9906 503.728 62.4086 504.458 64.4948C505.176 66.5928 506.861 68.455 509.499 70.0815C512.126 71.7198 517.45 74.1714 525.448 77.448C533.257 80.536 539.299 84.0365 543.575 87.9496C547.839 91.8627 551.019 96.9544 553.116 103.225C555.2 109.495 556.249 117.816 556.249 128.176C556.249 141.636 554.388 152.539 550.666 160.907C546.944 169.275 541.219 175.322 533.492 179.046C525.766 182.771 515.459 184.633 502.562 184.633C489.664 184.633 478.981 182.358 471.631 177.809L471.642 177.82Z" fill="#282560"/>
<path d="M617.592 174.414C599.418 166.694 585.978 155.78 577.25 141.683C568.534 127.599 564.164 111.004 564.164 91.9098C564.164 74.2774 568.616 58.5427 577.521 44.7291C586.426 30.9155 599.912 20.0014 617.993 11.9985C636.073 3.99556 658.735 0 685.991 0C713.247 0 735.956 4.00735 754.131 11.9985C772.294 20.0014 785.839 30.9155 794.744 44.7291C803.648 58.5545 808.101 74.2774 808.101 91.9098C808.101 110.45 803.825 126.774 795.286 140.87C786.746 154.967 773.483 166.01 755.497 174.002C737.511 182.004 714.342 186 686.003 186C657.663 186 635.755 182.134 617.592 174.414ZM703.718 123.273C708.253 120.727 711.669 116.861 713.942 111.687C716.215 106.501 717.346 100.101 717.346 92.4637C717.346 84.8262 716.215 79.1452 713.942 74.3246C711.669 69.504 708.217 65.7323 703.588 63.0097C698.959 60.2871 693.094 58.9198 686.015 58.9198C678.936 58.9198 673.294 60.2871 668.57 63.0097C663.847 65.7323 660.302 69.5157 657.946 74.3246C655.579 79.1452 654.401 85.0973 654.401 92.1926C654.401 100.007 655.579 106.513 657.946 111.687C660.302 116.873 663.941 120.739 668.853 123.273C673.765 125.819 679.572 127.092 686.297 127.092C693.388 127.092 699.195 125.819 703.742 123.273H703.718Z" fill="#282560"/>
<path d="M839.997 179.046C832.73 175.322 827.088 168.816 823.095 159.551C819.102 150.276 817.1 137.464 817.1 121.093V3.27661H868.879V119.454C868.879 124.369 869.102 128.047 869.562 130.498C870.009 132.95 870.563 134.494 871.199 135.13C871.835 135.767 872.695 136.085 873.79 136.085C874.886 136.085 875.699 135.767 876.24 135.13C876.782 134.494 877.242 132.95 877.607 130.498C877.972 128.047 878.148 124.358 878.148 119.454V3.27661H919.032V121.093C919.032 137.452 917.124 150.276 913.308 159.551C909.492 168.827 903.908 175.322 896.547 179.046C889.185 182.771 879.692 184.633 868.066 184.633C856.44 184.633 847.253 182.771 839.997 179.046Z" fill="#282560"/>
<path d="M927.207 3.27661H984.168C998.338 3.27661 1009.47 5.32743 1017.56 9.41729C1025.64 13.5071 1031.24 19.5064 1034.32 27.415C1037.41 35.3236 1038.95 45.4599 1038.95 57.8237C1038.95 70.1876 1037.41 78.9213 1034.32 85.6395C1031.24 92.3695 1025.69 97.0015 1017.69 99.5473V100.089C1023.14 101.728 1027.45 103.955 1030.64 106.772C1033.82 109.589 1035.99 113.007 1037.17 117.003C1038.35 121.01 1038.94 125.819 1038.94 131.453V182.723H987.16V126.538C987.16 124.534 986.925 122.99 986.477 121.906C986.018 120.81 985.429 120.044 984.71 119.584C983.98 119.136 982.896 118.9 981.436 118.9H978.986V182.723H927.207V3.27661ZM984.851 89.859C985.664 89.0457 986.253 87.1835 986.618 84.2722C986.983 81.361 987.16 77.3655 987.16 72.2738C987.16 66.6399 987.019 62.2318 986.748 59.0495C986.477 55.8672 985.97 53.8635 985.252 53.0503C984.522 52.237 983.344 51.8245 981.707 51.8245H978.986V91.0965H981.436C982.884 91.0965 984.027 90.684 984.84 89.8708L984.851 89.859Z" fill="#282560"/>
<path d="M1048.22 3.27661H1100V182.735H1048.22V3.27661Z" fill="#282560"/>
</svg>
