<svg width="13" height="13" viewBox="0 0 13 13" fill="none" xmlns="http://www.w3.org/2000/svg">
<path id="plus" d="M1.0888 7.17188H5.68422L5.68422 11.7673C5.68422 12.2344 6.06843 12.6261 6.54304 12.6261C7.01765 12.6261 7.40185 12.2344 7.40185 11.7673L7.40185 7.17188L11.9973 7.17188C12.4644 7.17188 12.8561 6.78767 12.8561 6.31306C12.8561 5.83845 12.4644 5.45424 11.9973 5.45424L7.40185 5.45424V0.858817C7.40185 0.391741 7.01765 0 6.54304 0C6.06843 0 5.68422 0.391741 5.68422 0.858817V5.45424H1.0888C0.621721 5.45424 0.22998 5.83845 0.22998 6.31306C0.22998 6.78767 0.621721 7.17188 1.0888 7.17188Z" fill="#282560"/>
</svg>
