<svg width="1062" height="183" viewBox="0 0 1062 183" fill="none" xmlns="http://www.w3.org/2000/svg">
<path d="M31.8994 65.3071H0V2.68874H141.409V65.3071H109.229V180.286H31.8994V65.3071Z" fill="#282560"/>
<path d="M150.6 2.68874H390.414V69.0917H272.798V77.7314H346.069V105.256H272.798V113.896H394.192V180.286H150.6V2.68874Z" fill="#282560"/>
<path d="M495.584 88.5118L406.37 2.68874H563.455L592.661 34.2655L615.638 2.68874H746.503L658.094 90.6781L749.209 180.286H596.452L565.357 146.823L541.027 180.286H403.677L495.597 88.5245L495.584 88.5118Z" fill="#282560"/>
<path d="M814.897 59.9041L812.459 180.286H753.792L782.717 2.68874H863.289L892.214 180.286H820.029L817.055 59.9041H814.897ZM808.413 157.068L808.949 121.439H823.003L823.82 157.068H808.413Z" fill="#282560"/>
<path d="M927.369 174.348C915.472 168.588 907.366 161.21 903.039 152.213C898.712 143.217 896.363 132.602 896.006 120.369V120.101H962.791C962.791 124.064 963.149 127.352 963.876 129.952C964.591 132.564 965.727 134.539 967.259 135.89C968.791 137.24 970.821 137.916 973.348 137.916C975.505 137.916 977.216 137.508 978.479 136.705C979.743 135.89 980.688 134.641 981.313 132.921C981.939 131.213 982.258 129.098 982.258 126.575C982.258 123.695 981.671 121.541 980.496 120.101C979.322 118.661 976.309 117.4 971.446 116.329C966.583 115.246 958.464 113.717 947.116 111.742C935.398 109.945 925.76 107.014 918.191 102.975C910.621 98.9227 904.979 93.5325 901.29 86.7788C897.588 80.0378 895.75 71.4364 895.75 61C895.75 48.9453 898.865 38.2795 905.081 29.0155C911.298 19.7514 920.54 12.6027 932.794 7.55651C945.048 2.52308 960.098 0 977.943 0C997.946 0 1013.76 2.38291 1025.39 7.14874C1037.02 11.9146 1045.18 18.8467 1049.86 27.9323C1054.55 37.018 1056.89 48.3081 1056.89 61.8028H994.704C994.704 57.6614 994.257 54.3737 993.351 51.9526C992.444 49.5187 991.193 47.7729 989.559 46.6898C987.938 45.6066 985.858 45.0714 983.343 45.0714C981.186 45.0714 979.373 45.4792 977.931 46.282C976.488 47.0976 975.492 48.168 974.956 49.5187C974.42 50.8694 974.139 52.628 974.139 54.7815C974.139 57.8398 974.765 60.1335 976.029 61.6626C977.292 63.1918 980.356 64.5425 985.219 65.7149C990.083 66.8872 998.201 68.4673 1009.55 70.4424C1021.62 72.4303 1031.45 75.2083 1039.02 78.8145C1046.59 82.4207 1052.31 87.4924 1056.19 94.0677C1060.07 100.643 1062 109.232 1062 119.846C1062 132.628 1059.38 143.65 1054.16 152.914C1048.93 162.178 1040.06 169.518 1027.53 174.908C1015 180.311 998.201 183 977.114 183C956.026 183 939.266 180.12 927.369 174.36V174.348Z" fill="#282560"/>
</svg>
