<svg preserveAspectRatio="none" overflow="visible" style="display: block;" width="96" height="167" viewBox="0 0 96 167" fill="none" xmlns="http://www.w3.org/2000/svg">
<g id="Ballot Icon" clip-path="url(#clip0_0_196)">
<path id="Vector" d="M47.1484 22.8313L48.5677 26.422C49.0413 27.6203 50.2363 28.3788 51.5279 28.3008L55.3983 28.0671C58.2862 27.8928 59.7112 31.4978 57.4777 33.328L54.4845 35.7808C53.4856 36.5993 53.1301 37.9647 53.6036 39.1628L55.0229 42.7536C56.0819 45.4329 53.0767 47.8954 50.6373 46.3471L47.3682 44.2723C46.2773 43.5799 44.8624 43.6652 43.8635 44.4838L40.8704 46.9365C38.6369 48.7668 35.3547 46.6836 36.0805 43.8966L37.0533 40.1616C37.3779 38.9151 36.8591 37.6026 35.7682 36.9102L32.499 34.8353C30.0596 33.2872 31.0363 29.5372 33.9242 29.3629L37.7946 29.1293C39.0862 29.0514 40.1803 28.1548 40.505 26.9083L41.4778 23.1733C42.2037 20.3863 46.0895 20.1521 47.1484 22.8313Z" fill="#FF223D"/>
<path id="Vector (Stroke)" d="M70.634 69.2724C71.7365 69.2059 72.6846 70.0458 72.7512 71.1484C72.8175 72.2508 71.9776 73.198 70.8752 73.2646L35.8244 75.3798C34.722 75.4462 33.7747 74.6063 33.7082 73.5039C33.6418 72.4014 34.4817 71.4542 35.5842 71.3876L70.634 69.2724Z" fill="#FF223D"/>
<path id="Vector (Stroke)_2" d="M71.7845 88.3277C72.8871 88.2612 73.8352 89.1011 73.9017 90.2037C73.968 91.306 73.128 92.2532 72.0257 92.3199L36.9857 94.4351C35.8834 94.5014 34.9362 93.6614 34.8695 92.5591C34.8029 91.4566 35.6429 90.5085 36.7455 90.442L71.7845 88.3277Z" fill="#FF223D"/>
<path id="Vector (Stroke)_3" d="M72.8237 107.39C73.9262 107.323 74.8734 108.163 74.9399 109.266C75.0063 110.368 74.1672 111.315 73.0649 111.382L38.147 113.489C37.0446 113.556 36.0973 112.716 36.0308 111.613C35.9642 110.511 36.8042 109.563 37.9067 109.496L72.8237 107.39Z" fill="#FF223D"/>
<path id="Vector (Stroke)_4" d="M74.069 126.439C75.1715 126.373 76.1187 127.213 76.1852 128.315C76.2515 129.418 75.4117 130.365 74.3092 130.431L39.3082 132.544C38.2058 132.61 37.2586 131.77 37.192 130.668C37.1256 129.565 37.9655 128.618 39.068 128.552L74.069 126.439Z" fill="#FF223D"/>
<g id="Vector (Stroke)_5">
<path d="M84.1361 0.117298C85.2387 0.0507627 86.1869 0.890597 86.2541 1.99312L95.872 159.81C95.939 160.912 95.0997 161.86 93.9973 161.926L11.8635 166.883C10.7611 166.949 9.81286 166.109 9.74548 165.007L0.127594 7.19053C0.060402 6.08801 0.899737 5.1403 2.0023 5.07376L84.1361 0.117298ZM13.6166 162.77L91.7576 158.054L82.383 4.23036L4.24199 8.94588L13.6166 162.77ZM28.8072 130.909C28.7183 129.455 27.4576 128.331 25.9718 128.42L25.4425 128.452C23.9567 128.542 22.8417 129.809 22.9302 131.264L22.9623 131.791C23.051 133.246 24.3118 134.371 25.7977 134.281L26.327 134.249C27.813 134.16 28.928 132.892 28.8393 131.437L28.8072 130.909ZM27.6459 111.855C27.5571 110.4 26.2964 109.276 24.8106 109.366L24.2812 109.398C22.7954 109.487 21.6804 110.755 21.7689 112.209L21.8011 112.737C21.8897 114.192 23.1506 115.316 24.6365 115.227L25.1658 115.195C26.6517 115.105 27.7667 113.837 27.6781 112.382L27.6459 111.855ZM26.4847 92.8003C26.396 91.3454 25.1352 90.2206 23.6493 90.3103L23.1199 90.3423C21.634 90.4319 20.519 91.7 20.6077 93.155L20.6398 93.6823C20.7286 95.1371 21.9893 96.261 23.4752 96.1713L24.0045 96.1394C25.4903 96.0497 26.6053 94.7824 26.5168 93.3276L26.4847 92.8003ZM25.3234 73.7458C25.2348 72.2909 23.9739 71.1662 22.488 71.2558L21.9587 71.2878C20.4728 71.3774 19.3578 72.6456 19.4464 74.1005L19.4786 74.6278C19.5674 76.0826 20.8281 77.2065 22.3139 77.1168L22.8432 77.0849C24.3291 76.9952 25.444 75.7279 25.3556 74.2732L25.3234 73.7458ZM39.5425 22.6686C40.7559 18.0095 47.2388 17.6191 49.0087 22.0974L50.4279 25.6874L50.4961 25.8271C50.68 26.1356 51.0273 26.3272 51.4058 26.3044L55.2766 26.0708C60.0783 25.781 62.4966 31.8011 58.7464 34.8748L55.7524 37.3282C55.4234 37.598 55.3107 38.0423 55.4633 38.4287L56.8826 42.0196C58.6669 46.5339 53.6103 50.6026 49.5661 48.0357L46.2971 45.9603C45.9352 45.7307 45.4636 45.7592 45.1322 46.0306L42.1382 48.484C38.4352 51.5178 32.9221 48.087 34.1447 43.3918L35.1175 39.6565C35.2222 39.2542 35.0565 38.8271 34.6969 38.5988L31.4279 36.5234C27.3314 33.9234 29.0013 27.6564 33.803 27.3666L37.6729 27.1331C38.1059 27.107 38.4643 26.8071 38.5696 26.403L39.5425 22.6686ZM45.2884 23.5654C44.9405 22.6853 43.6521 22.7637 43.4138 23.6785L42.441 27.4138C41.8969 29.5024 40.0664 30.996 37.9163 31.1257L34.0463 31.3592C33.0722 31.418 32.7881 32.6507 33.5702 33.147L36.8392 35.2214C38.6612 36.378 39.5331 38.5758 38.9888 40.6663L38.016 44.4016C37.7872 45.28 38.8385 46.0149 39.6024 45.3889L42.5955 42.9366C44.2617 41.5713 46.6197 41.4289 48.4394 42.5839L51.7084 44.6583C52.5428 45.188 53.497 44.3319 53.1633 43.4875L51.744 39.8966C50.9498 37.887 51.5483 35.6013 53.2167 34.2341L56.2097 31.7808C56.9255 31.1939 56.494 30.0046 55.52 30.0634L51.6491 30.297C49.499 30.4267 47.5013 29.164 46.7077 27.1563L45.2884 23.5654ZM32.832 131.196C33.0562 134.874 30.243 138.02 26.5704 138.242L26.0411 138.274C22.3684 138.495 19.1937 135.711 18.9696 132.032L18.9374 131.505C18.7134 127.827 21.5266 124.681 25.1992 124.46L25.7285 124.428C29.401 124.206 32.5756 126.99 32.7999 130.668L32.832 131.196ZM31.6708 112.141C31.895 115.82 29.0818 118.966 25.4091 119.187L24.8798 119.219C21.2072 119.441 18.0325 116.656 17.8083 112.978L17.7762 112.45C17.5522 108.772 20.3654 105.627 24.0379 105.405L24.5672 105.373C28.2398 105.152 31.4144 107.936 31.6387 111.614L31.6708 112.141ZM30.5096 93.0867C30.7336 96.7649 27.9204 99.9103 24.2478 100.132L23.7185 100.164C20.0459 100.386 16.8714 97.6014 16.6471 93.9232L16.6149 93.3959C16.3908 89.7176 19.204 86.5713 22.8766 86.3497L23.4059 86.3177C27.0786 86.0961 30.2532 88.881 30.4774 92.5594L30.5096 93.0867ZM29.3483 74.0322C29.5723 77.7104 26.7591 80.8558 23.0866 81.0775L22.5573 81.1094C18.8847 81.331 15.7102 78.5469 15.4858 74.8688L15.4537 74.3414C15.2295 70.6631 18.0427 67.5168 21.7154 67.2952L22.2447 67.2632C25.9173 67.0416 29.092 69.8265 29.3162 73.5049L29.3483 74.0322Z" fill="#FF223D"/>
<path d="M25.9718 128.42C27.4576 128.331 28.7183 129.455 28.8072 130.909L28.8393 131.437C28.928 132.892 27.813 134.16 26.327 134.249L25.7977 134.281C24.3118 134.371 23.051 133.246 22.9623 131.791L22.9302 131.264C22.8417 129.809 23.9567 128.542 25.4425 128.452L25.9718 128.42Z" fill-rule="evenodd" clip-rule="evenodd" fill="#680020"/>
<path d="M24.8106 109.366C26.2964 109.276 27.5571 110.4 27.6459 111.855L27.6781 112.382C27.7667 113.837 26.6517 115.105 25.1658 115.195L24.6365 115.227C23.1506 115.316 21.8897 114.192 21.8011 112.737L21.7689 112.209C21.6804 110.755 22.7954 109.487 24.2812 109.398L24.8106 109.366Z" fill-rule="evenodd" clip-rule="evenodd" fill="#680020"/>
<path d="M23.6493 90.3103C25.1352 90.2206 26.396 91.3454 26.4847 92.8003L26.5168 93.3276C26.6053 94.7824 25.4903 96.0497 24.0045 96.1394L23.4752 96.1713C21.9893 96.261 20.7286 95.1371 20.6398 93.6823L20.6077 93.155C20.519 91.7 21.634 90.4319 23.1199 90.3423L23.6493 90.3103Z" fill-rule="evenodd" clip-rule="evenodd" fill="#680020"/>
<path d="M22.488 71.2558C23.9739 71.1662 25.2348 72.2909 25.3234 73.7458L25.3556 74.2732C25.444 75.7279 24.3291 76.9952 22.8432 77.0849L22.3139 77.1168C20.8281 77.2065 19.5674 76.0826 19.4786 74.6278L19.4464 74.1005C19.3578 72.6456 20.4728 71.3774 21.9587 71.2878L22.488 71.2558Z" fill-rule="evenodd" clip-rule="evenodd" fill="#680020"/>
</g>
<path id="Vector_2" d="M91.7576 158.054L13.6166 162.77L4.24199 8.94588L82.383 4.23036L91.7576 158.054ZM70.634 69.2724C71.7366 69.2059 72.6846 70.0458 72.7512 71.1484C72.8175 72.2508 71.9776 73.198 70.8752 73.2646L35.8244 75.3798C34.722 75.4462 33.7747 74.6063 33.7082 73.5039C33.6418 72.4014 34.4817 71.4542 35.5842 71.3876L70.634 69.2724ZM74.069 126.439C75.1715 126.373 76.1187 127.213 76.1852 128.315C76.2515 129.418 75.4117 130.365 74.3092 130.431L39.3082 132.544C38.2058 132.61 37.2586 131.77 37.192 130.668C37.1256 129.565 37.9655 128.618 39.068 128.552L74.069 126.439ZM72.8237 107.39C73.9262 107.323 74.8734 108.163 74.9399 109.266C75.0063 110.368 74.1672 111.315 73.0649 111.382L38.147 113.489C37.0446 113.556 36.0973 112.716 36.0308 111.613C35.9642 110.511 36.8042 109.563 37.9067 109.496L72.8237 107.39ZM71.7845 88.3277C72.8871 88.2612 73.8352 89.1011 73.9017 90.2037C73.968 91.306 73.128 92.2532 72.0257 92.3199L36.9857 94.4351C35.8834 94.5014 34.9362 93.6614 34.8695 92.5592C34.8029 91.4566 35.6429 90.5085 36.7455 90.442L71.7845 88.3277ZM39.5425 22.6686C40.7559 18.0095 47.2388 17.6191 49.0087 22.0974L50.4279 25.6874L50.4961 25.8271C50.68 26.1356 51.0273 26.3272 51.4058 26.3044L55.2766 26.0708C60.0782 25.781 62.4966 31.8011 58.7464 34.8748L55.7524 37.3282C55.4234 37.598 55.3107 38.0423 55.4633 38.4287L56.8826 42.0196C58.6668 46.5339 53.6103 50.6026 49.5661 48.0357L46.2971 45.9603C45.9352 45.7307 45.4636 45.7592 45.1322 46.0306L42.1382 48.4839C38.4352 51.5178 32.9221 48.087 34.1447 43.3918L35.1175 39.6565C35.2222 39.2542 35.0565 38.8271 34.6969 38.5988L31.4279 36.5234C27.3314 33.9234 29.0013 27.6564 33.803 27.3666L37.6729 27.1331C38.1059 27.107 38.4643 26.8071 38.5696 26.403L39.5425 22.6686ZM32.832 131.196C33.0562 134.874 30.243 138.02 26.5704 138.242L26.0411 138.274C22.3684 138.495 19.1937 135.711 18.9696 132.032L18.9374 131.505C18.7134 127.827 21.5266 124.681 25.1992 124.46L25.7285 124.428C29.401 124.206 32.5756 126.99 32.7999 130.668L32.832 131.196ZM31.6708 112.141C31.895 115.82 29.0818 118.966 25.4091 119.187L24.8798 119.219C21.2072 119.441 18.0325 116.656 17.8083 112.978L17.7762 112.45C17.5522 108.772 20.3654 105.627 24.0379 105.405L24.5672 105.373C28.2398 105.152 31.4144 107.936 31.6387 111.614L31.6708 112.141ZM30.5096 93.0867C30.7336 96.7649 27.9204 99.9103 24.2478 100.132L23.7185 100.164C20.0459 100.386 16.8714 97.6014 16.6471 93.9232L16.6149 93.3959C16.3908 89.7176 19.204 86.5713 22.8766 86.3497L23.4059 86.3177C27.0786 86.0961 30.2532 88.881 30.4774 92.5594L30.5096 93.0867ZM29.3483 74.0322C29.5723 77.7104 26.7591 80.8558 23.0866 81.0775L22.5573 81.1094C18.8847 81.331 15.7102 78.5469 15.4858 74.8688L15.4537 74.3414C15.2295 70.6631 18.0427 67.5168 21.7154 67.2952L22.2447 67.2632C25.9173 67.0416 29.092 69.8265 29.3162 73.5049L29.3483 74.0322Z" fill-rule="evenodd" clip-rule="evenodd" fill="#680020"/>
</g>
<defs>
<clipPath id="clip0_0_196">
<rect width="96" height="167" fill="white"/>
</clipPath>
</defs>
</svg>
