<svg width="226" height="243" viewBox="0 0 226 243" fill="none" xmlns="http://www.w3.org/2000/svg">
<path d="M3.03369 115.103V129.653C3.03369 190.357 52.243 239.559 112.941 239.559C173.639 239.559 222.848 190.35 222.848 129.653V115.103" fill="#ED4138"/>
<path d="M112.941 242.484C50.7243 242.484 0.114746 191.869 0.114746 129.66V115.109H5.95239V129.66C5.95239 188.652 53.948 236.647 112.941 236.647C171.933 236.647 219.929 188.652 219.929 129.66V115.109H225.766V129.66C225.766 191.875 175.151 242.484 112.941 242.484Z" fill="black"/>
<mask id="mask0_129_1757" style="mask-type:luminance" maskUnits="userSpaceOnUse" x="3" y="115" width="220" height="125">
<path d="M3.0332 115.103V129.653C3.0332 190.357 52.2425 239.559 112.94 239.559C173.638 239.559 222.847 190.35 222.847 129.653V115.103" fill="white"/>
</mask>
<g mask="url(#mask0_129_1757)">
<path d="M27.71 -0.584961V301.258" stroke="black" stroke-width="7.504" stroke-miterlimit="10"/>
<path d="M46.6479 -0.584961V301.258" stroke="black" stroke-width="7.504" stroke-miterlimit="10"/>
<path d="M65.5928 -0.584961V301.258" stroke="black" stroke-width="7.504" stroke-miterlimit="10"/>
<path d="M84.5303 -0.584961V301.258" stroke="black" stroke-width="7.504" stroke-miterlimit="10"/>
<path d="M103.475 -0.584961V301.258" stroke="black" stroke-width="7.504" stroke-miterlimit="10"/>
<path d="M122.413 -0.584961V301.258" stroke="black" stroke-width="7.504" stroke-miterlimit="10"/>
<path d="M141.352 -0.584961V301.258" stroke="black" stroke-width="7.504" stroke-miterlimit="10"/>
<path d="M160.295 -0.584961V301.258" stroke="black" stroke-width="7.504" stroke-miterlimit="10"/>
<path d="M179.233 -0.584961V301.258" stroke="black" stroke-width="7.504" stroke-miterlimit="10"/>
<path d="M198.178 -0.584961V301.258" stroke="black" stroke-width="7.504" stroke-miterlimit="10"/>
</g>
<path d="M112.941 222.725C173.641 222.725 222.848 173.518 222.848 112.819C222.848 52.1192 173.641 2.9126 112.941 2.9126C52.2408 2.9126 3.03369 52.1192 3.03369 112.819C3.03369 173.518 52.2408 222.725 112.941 222.725Z" fill="#F7BE1B"/>
<path d="M112.941 225.65C50.7243 225.65 0.114746 175.034 0.114746 112.825C0.114746 50.6153 50.7305 0 112.941 0C175.151 0 225.766 50.6153 225.766 112.825C225.766 175.034 175.151 225.65 112.941 225.65ZM112.941 5.83137C53.948 5.83137 5.95239 53.8266 5.95239 112.819C5.95239 171.811 53.948 219.806 112.941 219.806C171.933 219.806 219.929 171.811 219.929 112.819C219.929 53.8266 171.933 5.83137 112.941 5.83137Z" fill="black"/>
<path d="M36.0061 157.771L33.529 153.414L29.9754 154.622L23.8765 143.899L51.8137 137.924L60.035 152.394L40.6114 173.342L33.1246 160.167L35.9998 157.771H36.0061ZM40.1758 154.304L46.1565 149.332L46.0321 149.114L38.6573 151.641L40.1695 154.304H40.1758Z" fill="#282560"/>
<path d="M54.764 167.093L59.4565 165.662L59.5374 165.569L57.1849 162.108L62.4002 158.71L64.7216 162.644L64.9021 162.693L67.9205 159.283L72.3827 163.235L69.3643 166.645L69.4016 166.788L73.59 168.612L70.8828 174.232L67.1612 172.321L67.0492 172.39L66.2339 177.25L60.222 176.298L61.1617 171.549L61.0062 171.413L56.407 172.925L54.7578 167.1L54.764 167.093Z" fill="#282560"/>
<path d="M70.4466 186.081L80.5909 189.921C80.0059 191.471 80.2486 192.578 81.6053 193.095C82.8812 193.58 83.572 193.045 83.8521 192.304C84.1135 191.607 84.0139 190.948 83.2297 190.431C82.57 189.958 81.0141 189.149 79.5018 188.359C77.8463 187.469 75.4566 185.944 74.1745 184.307C72.8676 182.621 72.5128 180.405 73.5335 177.692C75.5374 172.389 81.2631 170.479 89.783 173.703C99.5788 177.412 100.761 181.886 98.7573 187.189L89.2727 183.598C89.8453 182.086 89.4283 181.09 88.0716 180.573C86.7957 180.088 86.0925 180.536 85.8436 181.189C85.6071 181.812 85.7191 182.335 86.1361 182.758C86.6526 183.262 88.1276 184.046 90.2187 185.185C92.7952 186.56 94.5191 187.743 95.6207 189.043C97.133 190.898 97.4877 193.114 96.492 195.746C94.6311 200.663 90.3867 203.924 79.7383 199.897C68.897 195.796 68.7788 190.487 70.4529 186.069L70.4466 186.081Z" fill="#282560"/>
<path d="M114.372 193.344C112.611 185.21 116.451 178.706 126.769 176.466C137.125 174.226 143.318 178.557 145.079 186.691C146.902 195.105 143.392 201.584 132.713 203.899C122.357 206.139 116.283 202.163 114.372 193.344ZM132.352 189.535C131.586 186.013 130.236 185.247 128.742 185.571C127.286 185.888 126.334 187.152 127.093 190.674C127.914 194.477 129.284 195.111 130.74 194.8C132.24 194.477 133.179 193.338 132.352 189.535Z" fill="#282560"/>
<path d="M141.912 172.508L159.412 160.335L164.733 167.983L157.526 172.993L159.014 175.134L164.453 171.35L167.739 176.074L162.3 179.858L167.758 187.705L157.464 194.869L141.912 172.508Z" fill="#282560"/>
<path d="M161.198 158.331L173.265 140.756L180.945 146.027L175.979 153.265L178.126 154.74L181.872 149.282L186.615 152.537L182.868 157.995L190.753 163.409L183.652 173.752L161.198 158.337V158.331Z" fill="#282560"/>
<path d="M81.7358 81.1289L101.228 89.8293L105.646 68.9434C105.715 68.6136 106.157 68.5451 106.325 68.8376L116.979 87.3337L132.831 73.0322C133.08 72.8082 133.478 73.0073 133.441 73.3434L131.188 94.5716L152.416 92.3187C152.752 92.2813 152.951 92.6796 152.727 92.9286L138.426 108.78L156.922 119.434C157.214 119.602 157.146 120.038 156.816 120.113L135.93 124.531L144.63 144.023C144.767 144.328 144.456 144.645 144.145 144.508L124.653 135.808L120.234 156.694C120.166 157.024 119.724 157.092 119.556 156.8L108.901 138.304L93.0501 152.605C92.8011 152.829 92.4028 152.63 92.4402 152.294L94.6931 131.066L73.4647 133.319C73.1287 133.356 72.9295 132.958 73.1536 132.709L87.4552 116.858L68.9589 106.203C68.6664 106.035 68.7349 105.6 69.0648 105.525L89.9508 101.106L81.2503 81.6143C81.1134 81.3094 81.4246 80.992 81.7358 81.1289Z" fill="#ED4138"/>
<path d="M109.928 131.838L97.5742 142.984L99.3292 126.436L82.7809 128.191L93.9272 115.831L79.5073 107.523L95.788 104.081L89.0044 88.8835L104.202 95.667L107.644 79.3865L115.952 93.8062L128.312 82.66L126.557 99.2082L143.105 97.4531L131.959 109.807L146.379 118.115L130.098 121.563L136.882 136.76L121.684 129.977L118.236 146.257L109.928 131.838Z" fill="white"/>
<path d="M110.681 127.095L102.802 132.728L102.721 123.044L93.0375 122.963L98.6635 115.084L90.8779 109.327L100.064 106.259L97.145 97.0236L106.381 99.9424L109.449 90.7566L115.206 98.5484L123.085 92.9161L123.165 102.6L132.849 102.681L127.217 110.56L135.009 116.316L125.823 119.384L128.736 128.62L119.506 125.701L116.438 134.887L110.681 127.095Z" fill="#282560"/>
<path d="M18.9653 116.901L21.0066 101.679L36.6152 101.143L36.6339 101.019L21.7223 96.3452L23.3902 83.917L49.2675 95.866L47.0706 112.234L18.9653 116.895V116.901Z" fill="#282560"/>
<path d="M37.7849 83.4253C30.7773 78.9382 28.8728 71.6257 34.5673 62.7386C40.2805 53.8142 47.7176 52.4824 54.7253 56.9695C61.9756 61.6122 64.0916 68.6696 58.2042 77.874C52.491 86.7985 45.39 88.2983 37.7849 83.4316V83.4253ZM47.7611 67.9912C44.7303 66.0495 43.2304 66.4665 42.4027 67.7547C41.5999 69.0118 41.824 70.5802 44.8548 72.5219C48.1346 74.6192 49.5473 74.1026 50.3501 72.8455C51.1779 71.5572 51.0348 70.0885 47.755 67.9912H47.7611Z" fill="#282560"/>
<path d="M60.6444 48.344L55.9519 51.5988L50.3569 43.5395L70.0481 29.8728L75.643 37.9322L70.9505 41.187L80.8832 55.5072L70.5771 62.6579L60.6444 48.3378V48.344Z" fill="#282560"/>
<path d="M78.1138 26.3504L98.7509 20.6746L101.222 29.655L92.6768 32.0075L93.2244 34.0052L98.9749 32.4244L100.164 36.7373L94.4132 38.318L94.9608 40.3158L103.823 37.8762L106.294 46.8566L85.3392 52.6195L78.1138 26.3566V26.3504Z" fill="#282560"/>
<path d="M124.858 37.9694L119.519 19.019L134.299 22.7033L135.189 30.9432L135.27 30.9618L139.925 24.1036L151.333 26.9477L137.679 41.1621L135.227 51.0013L122.412 47.8025L124.865 37.9632L124.858 37.9694Z" fill="#282560"/>
<path d="M147.941 40.1102C152.944 33.4636 160.381 32.1193 168.814 38.4672C177.278 44.84 178.044 52.3579 173.04 59.0046C167.862 65.8815 160.668 67.4622 151.93 60.8903C143.466 54.5175 142.508 47.3232 147.934 40.1102H147.941ZM162.572 51.2315C164.738 48.3563 164.433 46.8315 163.213 45.9104C162.024 45.0143 160.444 45.1201 158.278 47.9953C155.938 51.107 156.349 52.5509 157.537 53.4533C158.763 54.3743 160.232 54.3432 162.572 51.2377V51.2315Z" fill="#282560"/>
<path d="M174.067 63.8154L187.659 56.4033L193.765 67.5993L181.15 74.4762C179.077 75.6026 179.027 76.81 179.762 78.1543C180.496 79.4985 181.517 80.0711 183.589 78.9447L196.198 72.0677L200.897 80.681L187.305 88.0931C179.563 92.3126 174.242 89.5556 170.022 81.8137C165.821 74.109 166.325 68.0349 174.067 63.8092V63.8154Z" fill="#282560"/>
<path d="M203.947 90.9619L205.148 104.361C206.137 115.37 203.032 118.762 197.96 119.223C195.159 119.472 192.421 118.638 191.126 114.891H191.046C190.585 119.011 188.183 120.019 185.581 120.249L179.271 120.816L178.15 108.363L184.909 107.753C186.558 107.603 186.919 107.031 186.832 106.004L186.751 105.095L177.926 105.886L176.806 93.3953L203.934 90.9619H203.947ZM191.879 105.593C191.985 106.788 192.539 107.404 194.027 107.267C195.346 107.149 195.999 106.589 195.875 105.189L195.794 104.28L191.792 104.641L191.879 105.587V105.593Z" fill="#282560"/>
<path d="M5.67862 221.841C7.38385 221.841 7.39008 219.19 5.67862 219.19C3.96715 219.19 3.96715 221.841 5.67862 221.841Z" fill="#282560"/>
<path d="M186.315 75.3162C188.021 75.3162 188.027 72.665 186.315 72.665C184.604 72.665 184.604 75.3162 186.315 75.3162Z" fill="#282560"/>
</svg>
