<svg width="595" height="631" viewBox="0 0 595 631" fill="none" xmlns="http://www.w3.org/2000/svg">
<path d="M559.726 168.745C578.048 191.484 579.372 220.943 562.664 234.401L250.735 485.733C234.038 499.187 205.53 491.635 187.208 468.896C168.883 446.146 167.565 416.691 184.262 403.237L496.192 151.905C512.9 138.447 541.397 146.003 559.726 168.745Z" fill="black"/>
<path d="M242.953 423.988C259.124 444.055 260.868 469.588 246.831 480.894C232.805 492.197 208.223 485.064 192.053 464.996C175.879 444.918 174.136 419.385 188.168 408.086C202.194 396.783 226.776 403.916 242.953 423.988Z" fill="#ED4138"/>
<path d="M554.877 172.652C571.047 192.719 572.795 218.246 558.754 229.558L261.053 469.426C265.001 454.785 260.473 435.824 247.786 420.08C235.099 404.336 217.528 395.874 202.39 396.618L500.091 156.75C514.128 145.444 538.699 152.58 554.877 172.652Z" fill="#ED4138"/>
<path d="M241.808 391.74L267.836 370.763L297.345 380.351L293.816 349.838L315.48 332.384L319.8 388.873L296.09 407.979L241.808 391.74Z" fill="black"/>
<path d="M327.122 352.616C317.902 341.177 324.857 323.455 346.08 306.355C367.303 289.256 386.107 286.23 395.316 297.672C404.848 309.501 398.269 327.011 376.712 344.375C355.099 361.787 336.647 364.442 327.122 352.616ZM373.47 315.453C370.399 311.641 363.587 313.031 356.235 318.954C348.884 324.876 346.078 331.238 349.155 335.053C352.404 339.086 358.998 337.884 366.563 331.78C374.084 325.722 376.721 319.496 373.466 315.46L373.47 315.453Z" fill="black"/>
<path d="M411.113 278.016L393.815 291.958L382.729 278.194L438.328 233.398L449.415 247.162L432.118 261.104L450.33 283.707L429.328 300.629L411.116 278.026L411.113 278.016Z" fill="black"/>
<path d="M442.134 230.323L490.658 191.223L500.319 203.218L472.632 225.524L475.257 228.787L494.213 213.517L498.887 219.319L479.931 234.589L482.605 237.908L511.01 215.021L520.671 227.016L471.433 266.69L442.134 230.323Z" fill="black"/>
<path d="M515.398 211.305L531.87 198.034L541.622 210.136L525.149 223.407L515.398 211.305ZM500.695 193.167L495.176 186.312L511.7 173L517.219 179.854L524.952 198.958L517.715 204.793L500.695 193.167Z" fill="black"/>
<path d="M500.714 156.132C516.628 143.309 543.761 163.564 552.574 174.496C566.529 191.819 569.06 217.037 556.494 227.166L259.658 466.34C260.258 472.006 262.399 464.455 261.064 469.423L558.765 229.556C572.802 218.25 571.054 192.723 554.888 172.649C540.411 154.679 517.282 142.791 500.725 156.129L500.714 156.132Z" fill="#F7BE1B"/>
<path d="M496.192 151.905L184.262 403.237C167.565 416.691 168.879 446.153 187.208 468.896C205.53 491.635 234.038 499.187 250.735 485.733L562.664 234.401C579.372 220.943 578.048 191.484 559.726 168.745C541.401 145.996 512.904 138.44 496.192 151.905ZM246.832 480.894C232.806 492.197 208.224 485.064 192.053 464.996C175.88 444.918 174.136 419.385 188.169 408.086C202.195 396.783 226.776 403.916 242.954 423.988C259.125 444.055 260.868 469.588 246.832 480.894ZM558.761 229.562L261.06 469.43C265.008 454.789 260.479 435.828 247.793 420.084C235.106 404.34 217.534 395.878 202.397 396.622L500.098 156.754C514.135 145.448 538.706 152.584 554.883 172.656C571.054 192.723 572.802 218.249 558.761 229.562Z" fill="black"/>
<path d="M286.672 216.517L245.026 216.525L253.758 175.804C253.844 175.394 253.383 175.089 253.039 175.339L219.349 199.823L202.478 161.752C202.308 161.364 201.755 161.401 201.625 161.794L188.761 201.398L152.733 180.516C152.37 180.304 151.94 180.656 152.067 181.055L164.944 220.658L123.522 224.941C123.101 224.984 122.958 225.522 123.301 225.767L156.996 250.242L126.001 278.058C125.686 278.333 125.886 278.855 126.308 278.859L167.953 278.85L159.221 319.571C159.136 319.981 159.597 320.286 159.941 320.037L191.475 297.113C190.78 315.239 185.876 329.789 176.699 341.087C163.153 357.77 141.725 366.137 120.987 374.231C94.3219 384.638 66.7444 395.405 56.9134 424.096C50.1255 443.906 59.3786 468.213 78.9005 481.895C94.9448 493.141 140.842 512.383 220.292 448.364C221.631 447.29 221.842 445.324 220.765 443.991C219.691 442.652 217.724 442.441 216.392 443.518C186.85 467.318 159.203 481.611 134.217 485.998C108.698 490.48 91.9905 483.469 82.4711 476.8C65.1663 464.674 56.8902 443.353 62.7997 426.11C71.6928 400.151 96.7375 390.374 123.246 380.019C144.731 371.632 166.943 362.957 181.521 345.003C190.447 334.009 195.67 320.348 197.259 303.762L210.488 333.616C210.658 334.003 211.211 333.966 211.341 333.574L224.205 293.969L260.233 314.852C260.596 315.063 261.027 314.711 260.899 314.313L248.023 274.709L289.444 270.426C289.865 270.384 290.009 269.846 289.665 269.6L255.97 245.125L286.965 217.31C287.28 217.034 287.08 216.512 286.658 216.509L286.672 216.517Z" fill="black"/>
<path d="M219.709 282.216L209.84 312.624L196.888 283.391L171.032 302.19L177.732 270.931L145.765 270.935L169.559 249.589L143.693 230.804L175.49 227.512L165.605 197.116L193.268 213.148L203.138 182.741L216.09 211.974L241.945 193.174L235.245 224.433L267.212 224.429L243.419 245.775L269.285 264.56L237.487 267.852L247.372 298.249L219.709 282.216Z" fill="#F7BE1B"/>
<path d="M216.413 273.607L208.698 290.533L199.283 274.493L183.089 283.646L184.9 265.137L166.421 263.027L178.765 249.111L165.052 236.542L183.219 232.541L179.514 214.313L196.563 221.758L204.279 204.832L213.693 220.872L229.887 211.718L228.076 230.228L246.556 232.338L234.211 246.253L247.924 258.822L229.757 262.824L233.462 281.051L216.413 273.607Z" fill="#ED4138"/>
</svg>
