<svg width="369" height="203" viewBox="0 0 369 203" fill="none" xmlns="http://www.w3.org/2000/svg">
<g filter="url(#filter0_d_131_2020)">
<path d="M198.655 174.224C242.608 165.792 281.097 150.354 307.795 132.045C321.139 122.894 331.7 112.915 338.474 102.578C345.263 92.2181 348.382 81.2694 346.308 70.4633C344.235 59.6571 337.286 50.6399 327.145 43.528C317.026 36.4314 303.522 31.0691 287.74 27.5061C256.161 20.3773 214.692 20.2784 170.739 28.7105C126.786 37.1426 88.2973 52.581 61.5991 70.8898C48.2555 80.0405 37.6947 90.0195 30.9202 100.357C24.1313 110.717 21.0127 121.665 23.0858 132.472C25.1589 143.278 32.1079 152.295 42.2488 159.407C52.3679 166.504 65.872 171.866 81.6547 175.429C113.233 182.558 154.703 182.657 198.655 174.224Z" fill="#282560" stroke="white" stroke-width="8"/>
<path d="M169.995 52.6303L180.225 50.6699L184.504 72.9654L174.274 74.9258L169.995 52.6303Z" fill="white"/>
<path d="M75.4678 105.965L87.0357 103.748C89.8596 103.204 92.1623 103.188 93.9438 103.701C95.7253 104.207 97.0555 105.078 97.9424 106.3C98.8292 107.521 99.4361 108.991 99.7628 110.695C100.082 112.368 100.097 113.9 99.8017 115.269C99.5061 116.646 98.6814 117.759 97.3201 118.591V118.645C98.5803 118.77 99.6383 119.182 100.494 119.882C101.35 120.582 102.019 121.438 102.501 122.426C102.983 123.422 103.334 124.488 103.551 125.639C103.948 127.701 103.995 129.536 103.684 131.147C103.38 132.765 102.532 134.165 101.155 135.348C99.7706 136.538 97.7013 137.394 94.9474 137.923L82.0725 140.396L75.4678 105.957V105.965ZM90.4975 117.704C90.5598 117.564 90.5676 117.284 90.5287 116.856C90.482 116.428 90.4042 115.923 90.2875 115.331C90.163 114.701 90.0541 114.196 89.9374 113.799C89.8285 113.402 89.7118 113.169 89.5796 113.083C89.4551 112.998 89.3073 112.974 89.1284 113.005L88.7627 113.075L89.7196 118.046L90.0852 117.976C90.2953 117.938 90.4275 117.844 90.4975 117.704ZM92.5513 128.548C92.6291 128.408 92.6524 128.121 92.6058 127.701C92.5591 127.273 92.4735 126.728 92.349 126.067C92.2323 125.476 92.1234 124.993 92.0145 124.612C91.9056 124.239 91.7889 124.005 91.6644 123.92C91.54 123.834 91.3689 123.811 91.1666 123.858L90.8554 123.92L91.8122 128.891L92.1234 128.829C92.3335 128.79 92.4813 128.696 92.5591 128.556L92.5513 128.548Z" fill="#F7BE1B"/>
<path d="M138.978 104.962L135.524 105.623L133.455 94.8406L151.877 91.3088L153.946 102.091L150.492 102.752L155.027 126.409L143.514 128.618L138.978 104.962Z" fill="#F7BE1B"/>
<path d="M168.501 122.084C165.366 121.127 162.924 119.455 161.158 117.059C159.399 114.662 158.178 111.691 157.493 108.128C156.762 104.324 156.856 100.963 157.781 98.0381C158.699 95.1131 160.473 92.6782 163.079 90.7256C165.693 88.7807 169.108 87.396 173.325 86.587C177.759 85.739 181.446 85.7235 184.387 86.5559C187.327 87.3805 189.599 88.7885 191.186 90.7567C192.773 92.7326 193.823 95.0431 194.337 97.6958C194.508 98.5671 194.601 99.275 194.632 99.8118L181.656 102.301C181.586 101.951 181.524 101.617 181.462 101.305C181.283 100.364 180.979 99.6406 180.559 99.1428C180.139 98.6449 179.649 98.3259 179.097 98.1781C178.544 98.0303 177.922 98.0226 177.222 98.1548C176.382 98.3182 175.713 98.6605 175.199 99.1972C174.686 99.7262 174.359 100.465 174.211 101.399C174.064 102.332 174.126 103.499 174.39 104.892C174.67 106.354 175.052 107.482 175.526 108.252C176.001 109.03 176.561 109.551 177.214 109.832C177.86 110.104 178.622 110.158 179.494 109.995C180.085 109.878 180.629 109.66 181.127 109.326C181.625 108.999 181.991 108.517 182.232 107.894C182.473 107.272 182.504 106.486 182.325 105.545C182.255 105.195 182.162 104.868 182.03 104.573L195.115 102.06C195.239 102.511 195.364 103.079 195.496 103.779C196.056 106.712 195.947 109.396 195.169 111.846C194.391 114.297 192.781 116.421 190.338 118.225C187.895 120.03 184.496 121.353 180.139 122.193C175.495 123.08 171.613 123.049 168.478 122.1L168.501 122.084Z" fill="#F7BE1B"/>
<path d="M194.484 83.1329L205.998 80.9235L208.231 92.5458L209.281 92.3436L207.048 80.7213L218.561 78.512L225.166 112.951L213.653 115.16L211.342 103.126L210.292 103.328L212.603 115.363L201.089 117.572L194.484 83.1329Z" fill="#F7BE1B"/>
<path d="M222.117 77.8274L252.262 72.0474L254.619 84.3464L241.9 86.7891L242.32 88.9907L250.59 87.4037L251.632 92.8492L243.363 94.4362L243.783 96.6377L256.922 94.1173L259.279 106.416L228.714 112.282L222.109 77.8429L222.117 77.8274Z" fill="#F7BE1B"/>
<path d="M256.502 71.2305L274.247 67.8232C279.342 66.843 283.59 66.7574 286.997 67.5509C290.404 68.3444 293.049 69.8847 294.94 72.1563C296.822 74.4356 298.106 77.3528 298.791 80.9158C299.545 84.8599 299.483 88.2127 298.604 90.99C297.725 93.7672 295.951 96.0698 293.283 97.898C290.615 99.7339 286.873 101.111 282.057 102.029L263.114 105.662L256.51 71.2227L256.502 71.2305ZM280.906 88.9907C281.264 88.5784 281.482 87.9949 281.575 87.2325C281.668 86.478 281.59 85.4822 281.357 84.2609C281.163 83.2495 280.859 82.3938 280.455 81.6937C280.05 80.9935 279.599 80.5035 279.109 80.2156C278.619 79.9278 278.082 79.8422 277.483 79.9589L276.277 80.1923L278.167 90.0331L279.373 89.7997C280.035 89.6753 280.548 89.403 280.898 88.9907H280.906Z" fill="#F7BE1B"/>
<path d="M130.312 106.315L124.003 104.129L127.465 98.4113L121.07 100.356L120.51 93.7048L116.488 99.0337L112.116 93.9771L111.992 100.652L105.488 99.127L109.316 104.604L103.154 107.194L109.471 109.38L106.009 115.09L112.396 113.145L112.956 119.804L116.986 114.476L121.35 119.532L121.475 112.857L127.978 114.382L124.159 108.898L130.312 106.315Z" fill="#ED4138"/>
<path d="M137.399 147.382C136.901 144.792 137.073 142.341 137.851 140.459L139.531 140.14C138.753 142.419 138.667 144.644 139.134 147.055C139.601 149.467 140.496 151.497 142.059 153.333L140.379 153.652C138.955 152.159 137.889 149.98 137.392 147.382H137.399Z" fill="white"/>
<path d="M155.696 137.643L154.319 148.137L152.375 148.51L148.531 141.68L147.45 149.459L145.49 149.833L140.324 140.591L142.23 140.225L146.12 147.25L147.232 139.261L148.92 138.934L152.865 145.998L153.938 137.969L155.688 137.635L155.696 137.643Z" fill="white"/>
<path d="M156.863 137.464C156.747 136.872 157.136 136.312 157.789 136.188C158.435 136.063 159.003 136.414 159.112 136.989C159.228 137.612 158.855 138.179 158.194 138.304C157.548 138.428 156.98 138.055 156.863 137.464ZM157.548 139.72L159.306 139.385L160.753 146.908L158.995 147.242L157.548 139.72Z" fill="white"/>
<path d="M167.514 145.181C167.156 145.601 166.557 145.889 165.919 146.013C164.27 146.332 163.157 145.64 162.838 143.975L162.146 140.35L160.909 140.591L160.637 139.183L161.874 138.942L161.547 137.222L163.305 136.888L163.632 138.607L165.647 138.218L165.919 139.626L163.904 140.015L164.589 143.594C164.729 144.325 165.172 144.652 165.849 144.519C166.215 144.449 166.549 144.278 166.775 144.022L167.506 145.181H167.514Z" fill="white"/>
<path d="M175.627 139.58L176.452 143.889L174.694 144.224L173.908 140.14C173.652 138.802 172.866 138.281 171.738 138.498C170.485 138.74 169.785 139.665 170.073 141.174L170.804 144.979L169.046 145.313L167.039 134.858L168.797 134.523L169.528 138.327C169.987 137.596 170.812 137.09 171.854 136.888C173.659 136.538 175.192 137.316 175.627 139.58Z" fill="white"/>
<path d="M191.823 140.941L190.555 134.406L188.354 140.443L187.537 140.599L183.274 135.892L184.511 142.349L182.76 142.683L180.87 132.819L182.379 132.531L187.553 138.319L190.143 131.038L191.652 130.75L193.558 140.614L191.823 140.949V140.941Z" fill="white"/>
<path d="M201.657 131.256L199.697 140.062C199.331 141.898 198.475 142.606 197.223 142.847C196.476 142.987 195.636 142.886 195.076 142.544L195.535 141.112C195.932 141.369 196.453 141.478 196.935 141.385C197.557 141.268 197.869 140.902 198.063 140.085L198.133 139.766L193.403 132.843L195.239 132.493L198.678 137.604L199.992 131.583L201.681 131.256H201.657Z" fill="white"/>
<path d="M216.515 133.426C216.842 135.114 215.706 136.359 213.17 136.841L208.269 137.783L206.379 127.919L211 127.032C213.365 126.58 214.827 127.335 215.131 128.899C215.325 129.91 214.96 130.758 214.283 131.31C215.403 131.443 216.282 132.143 216.531 133.419L216.515 133.426ZM208.479 129.008L209.001 131.73L211.591 131.233C212.859 130.991 213.489 130.4 213.318 129.498C213.139 128.58 212.338 128.269 211.07 128.51L208.479 129.008ZM214.633 133.597C214.446 132.609 213.614 132.314 212.229 132.586L209.273 133.154L209.817 136.001L212.774 135.433C214.158 135.169 214.82 134.585 214.625 133.597H214.633Z" fill="white"/>
<path d="M224.272 130.143L225.12 134.554L223.455 134.873L223.276 133.955C222.98 134.686 222.234 135.208 221.106 135.425C219.386 135.752 218.118 135.021 217.869 133.706C217.628 132.454 218.282 131.302 220.569 130.867L222.514 130.493L222.49 130.377C222.296 129.35 221.557 128.86 220.304 129.101C219.456 129.264 218.64 129.715 218.165 130.283L217.231 129.132C217.916 128.354 219.028 127.825 220.242 127.592C222.413 127.172 223.867 127.965 224.28 130.135L224.272 130.143ZM222.903 132.539L222.739 131.668L220.919 132.018C219.721 132.251 219.48 132.765 219.589 133.309C219.713 133.94 220.328 134.251 221.23 134.08C222.086 133.916 222.763 133.379 222.91 132.547L222.903 132.539Z" fill="white"/>
<path d="M225.368 123.663L227.134 123.329L229.141 133.784L227.375 134.119L225.368 123.663Z" fill="white"/>
<path d="M229.445 122.885L231.203 122.551L233.211 133.006L231.452 133.341L229.445 122.885Z" fill="white"/>
<path d="M234.182 128.914C233.747 126.658 235.131 124.745 237.45 124.301C239.791 123.85 241.775 125.126 242.203 127.382C242.638 129.638 241.269 131.567 238.928 132.01C236.617 132.454 234.618 131.17 234.182 128.914ZM240.429 127.716C240.157 126.277 239.021 125.546 237.738 125.795C236.469 126.036 235.684 127.141 235.964 128.58C236.236 130.019 237.372 130.75 238.64 130.509C239.923 130.26 240.701 129.163 240.429 127.724V127.716Z" fill="white"/>
<path d="M249.064 129.537C248.707 129.957 248.108 130.245 247.47 130.369C245.82 130.688 244.708 129.996 244.389 128.331L243.697 124.706L242.46 124.947L242.188 123.539L243.424 123.298L243.098 121.578L244.856 121.244L245.183 122.963L247.197 122.574L247.47 123.982L245.455 124.371L246.139 127.95C246.279 128.681 246.723 129.008 247.4 128.875C247.765 128.805 248.1 128.642 248.325 128.378L249.057 129.537H249.064Z" fill="white"/>
<path d="M250.27 132.563C251.048 130.283 251.142 128.051 250.683 125.647C250.224 123.243 249.306 121.205 247.742 119.369L249.423 119.05C250.854 120.513 251.912 122.722 252.41 125.32C252.908 127.918 252.744 130.33 251.959 132.244L250.278 132.563H250.27Z" fill="white"/>
</g>
<defs>
<filter id="filter0_d_131_2020" x="0.451172" y="0.265625" width="368.492" height="202.404" filterUnits="userSpaceOnUse" color-interpolation-filters="sRGB">
<feFlood flood-opacity="0" result="BackgroundImageFix"/>
<feColorMatrix in="SourceAlpha" type="matrix" values="0 0 0 0 0 0 0 0 0 0 0 0 0 0 0 0 0 0 127 0" result="hardAlpha"/>
<feOffset/>
<feGaussianBlur stdDeviation="9"/>
<feColorMatrix type="matrix" values="0 0 0 0 0 0 0 0 0 0 0 0 0 0 0 0 0 0 0.1 0"/>
<feBlend mode="normal" in2="BackgroundImageFix" result="effect1_dropShadow_131_2020"/>
<feBlend mode="normal" in="SourceGraphic" in2="effect1_dropShadow_131_2020" result="shape"/>
</filter>
</defs>
</svg>
