<svg width="301" height="299" viewBox="0 0 301 299" fill="none" xmlns="http://www.w3.org/2000/svg">
<g filter="url(#filter0_d_131_2009)">
<path d="M279.548 21.8352C277.246 19.4003 273.963 18 270.353 18L231.519 18.9102C229.885 18.9569 228.321 19.3147 226.89 19.9682C225.536 20.5672 224.284 21.4307 223.257 22.4575L204.758 40.9723C200.331 35.7368 194.598 31.746 187.993 29.4045L187.752 29.3267C183.979 28.1364 176.161 26.7362 166.538 26.7362C154.876 26.7362 137.629 28.8132 121.635 38.7319C101.774 51.0465 89.4906 71.5994 85.1108 99.8305C82.4425 117.093 85.352 139.832 88.6038 157.125L42.6822 203.046L42.052 203.599L41.8887 203.84L23.0081 222.72C21.1566 224.541 18.9551 227.808 18.9551 233.028C18.9551 241.562 25.3342 253.021 35.9997 263.663C42.1454 269.832 48.9601 274.842 55.2303 277.806C59.4934 279.774 63.2275 280.746 66.6426 280.746C71.8081 280.746 75.091 278.545 76.927 276.709L117.139 236.513C127.656 243.149 141.472 246.867 156.113 246.867C168.366 246.867 180.074 244.246 189.837 239.399L197.795 234.623C206.983 228.018 212.553 219.5 213.797 210.289C225.132 201.662 234.125 190.428 240.068 177.499C240.823 177.25 241.577 176.986 242.34 176.682L243.966 175.99L243.981 175.974C252.787 172.023 259.703 164.998 263.577 156.044C266.814 148.498 267.56 140.236 265.779 132.348C268.642 129.205 270.937 125.642 272.617 121.714C276.686 112.293 276.865 101.845 273.084 92.2457C272.01 89.5619 270.633 87.0024 269.007 84.622L277.137 76.4926C278.242 75.4346 279.113 74.1977 279.72 72.8286C280.311 71.5605 280.669 70.1758 280.801 68.7055L282.956 31.0148C283.143 27.6152 281.89 24.2468 279.572 21.8352H279.548ZM207.325 54.2049L229.776 31.7538L231.752 38.0317L206.345 62.202C206.08 60.2183 205.66 58.289 205.053 56.422L207.325 54.2127V54.2049ZM271.193 40.4277L269.708 66.5351L262.722 64.3258C262.636 64.3024 262.574 64.2402 262.551 64.1546L259.952 55.9397C259.563 54.6872 258.575 53.7148 257.338 53.3103L249.123 50.7198C249.038 50.6964 248.976 50.6342 248.952 50.5486L246.362 42.3337C245.957 41.0812 244.985 40.1088 243.732 39.7198L235.517 37.1215C235.447 37.0982 235.369 37.036 235.346 36.9582L233.176 30.0424L260.186 29.42L271.201 40.4277H271.193ZM113.583 224.229L88.5649 249.255C87.3669 250.446 84.5041 250.205 80.8244 248.695L177.755 151.773C178.277 153.873 179.016 155.912 179.98 157.864L116.244 221.584C116.174 221.514 116.088 221.46 116.026 221.382L113.327 223.981C113.397 224.066 113.498 224.152 113.583 224.229ZM165.114 96.431C167.323 97.1389 169.634 97.6212 171.975 97.8468L50.9672 218.838C49.248 214.676 49.4502 212.172 50.3526 211.176L165.114 96.431ZM176.97 147.245L77.2537 246.961C73.2318 244.72 68.8909 241.453 64.7756 237.532L248.011 54.2982L256.195 56.8888C256.288 56.9121 256.35 56.9743 256.374 57.0599L258.964 65.2593L212 112.215C209.713 111.997 207.387 111.997 205.03 112.254C190.7 113.841 178.938 125.354 177.071 139.637C176.736 142.212 176.705 144.756 176.97 147.245ZM222.58 115.241C220.628 114.292 218.605 113.545 216.504 113.016L261.609 67.912L267.926 69.9035L222.58 115.241ZM206.617 67.1108L234.389 40.6922L242.604 43.2905C242.682 43.3139 242.744 43.3839 242.775 43.4617L245.366 51.6611L62.1461 234.879C58.2176 230.78 54.9425 226.439 52.7176 222.401L177.234 97.8935C193.376 96.7499 206.205 83.4551 206.617 67.1108Z" fill="white"/>
<path d="M275.325 28.961C275.301 28.8443 275.255 28.7354 275.208 28.6187C275.122 28.4009 275.029 28.1908 274.912 27.9808C274.858 27.8719 274.796 27.7707 274.734 27.6696C274.562 27.4051 274.368 27.1562 274.142 26.9228C273.341 26.0749 272.197 25.5614 271.062 25.4525C270.883 25.4292 270.696 25.4214 270.517 25.4214L250.905 25.8804L231.737 26.3316H231.612C231.488 26.3316 231.364 26.3549 231.247 26.3627C231.006 26.3938 230.78 26.4327 230.554 26.5027C230.438 26.5338 230.337 26.5727 230.236 26.6116C230.173 26.635 230.111 26.6505 230.057 26.6816C230.018 26.6972 229.979 26.7128 229.932 26.7361C229.574 26.8917 229.248 27.0862 228.952 27.3195C228.897 27.3429 228.843 27.3896 228.796 27.4284C228.75 27.4751 228.695 27.5218 228.649 27.5685C228.594 27.5996 228.54 27.6541 228.493 27.7007L210.639 45.5698L204.688 51.521L204.105 52.0811L203.513 52.6412C200.853 47.0868 196.605 42.3414 191.23 39.1052C190.779 38.8407 190.327 38.5762 189.861 38.3273C189.402 38.0705 188.927 37.8372 188.453 37.6116C187.496 37.1604 186.508 36.7558 185.496 36.3902C185.411 36.3669 185.317 36.328 185.224 36.3046C185.131 36.2735 185.03 36.2424 184.928 36.2191C184.711 36.1568 184.493 36.0946 184.252 36.0401C184.104 36.0013 183.948 35.9623 183.785 35.9235C183.66 35.8923 183.536 35.8612 183.419 35.8379C183.163 35.7756 182.898 35.7134 182.618 35.659C182.47 35.6356 182.33 35.5967 182.182 35.5734C181.863 35.5112 181.537 35.4489 181.194 35.3867C180.852 35.3244 180.494 35.2622 180.129 35.2078C179.763 35.1455 179.374 35.0833 178.985 35.0288C167.425 33.3407 145.059 32.944 125.548 45.0408C119.94 48.5182 115 52.7501 110.729 57.7133C109.453 59.1991 108.232 60.755 107.072 62.3731C106.684 62.9177 106.31 63.4622 105.929 64.0223C105.089 65.267 104.287 66.5584 103.517 67.8731C103.261 68.3165 103.012 68.7599 102.763 69.2033C102.436 69.8101 102.109 70.4169 101.783 71.0237C101.541 71.4827 101.316 71.9494 101.082 72.4084C100.74 73.1086 100.398 73.8242 100.071 74.5399C99.7443 75.2634 99.4253 75.9869 99.1142 76.7259C98.0017 79.3553 97.006 82.0859 96.1113 84.9487C95.6679 86.38 95.2478 87.8348 94.8589 89.3128C93.8865 93.0236 93.0852 96.9055 92.455 100.974C90.8291 111.468 91.4359 124.312 92.9218 136.642C93.0463 137.599 93.163 138.548 93.2874 139.497C93.3574 139.972 93.4119 140.446 93.4819 140.929C93.6142 141.878 93.7464 142.811 93.8865 143.745C94.7188 149.361 95.6835 154.737 96.6559 159.591L47.7781 208.469C47.7781 208.469 47.7314 208.507 47.7081 208.531C47.6847 208.554 47.6614 208.577 47.6459 208.601L28.2441 228.002H28.2285C28.0807 228.158 27.9329 228.314 27.8085 228.477C27.7307 228.586 27.6529 228.687 27.5751 228.788C27.4661 228.944 27.365 229.107 27.2717 229.278C27.1161 229.566 26.9761 229.862 26.8594 230.181C26.5482 231.021 26.4004 231.97 26.4004 233.028C26.4004 239.415 32.2349 249.38 41.2745 258.419C46.1756 263.32 51.4344 267.373 56.3121 270.018C56.6621 270.205 57.0122 270.384 57.3545 270.563C57.5256 270.649 57.6968 270.734 57.8679 270.82C58.0391 270.905 58.1947 270.991 58.3658 271.069C58.8093 271.279 59.2371 271.465 59.6494 271.629C60.8863 272.15 62.0221 272.531 63.0568 272.803C64.4337 273.169 65.6084 273.317 66.6509 273.317C66.8064 273.317 66.9543 273.317 67.0943 273.301C67.1099 273.301 67.1176 273.301 67.1332 273.301C67.561 273.278 67.9656 273.231 68.339 273.161C68.6813 273.091 69.0002 273.006 69.2958 272.905C69.5603 272.819 69.8015 272.726 70.0271 272.609C70.1983 272.531 70.3616 272.438 70.5172 272.352C70.6339 272.282 70.7428 272.212 70.8517 272.134C71.0073 272.025 71.1551 271.917 71.2951 271.8C71.4352 271.691 71.5596 271.574 71.6841 271.45L116.369 226.781C118.71 228.741 121.348 230.499 124.249 232.04C124.662 232.258 125.082 232.475 125.502 232.693C125.875 232.88 126.256 233.059 126.645 233.246C127.221 233.51 127.805 233.782 128.396 234.039C128.987 234.296 129.586 234.537 130.193 234.778C132.62 235.727 135.164 236.544 137.817 237.213C138.696 237.431 139.59 237.641 140.485 237.835C145.456 238.878 150.723 239.438 156.129 239.438C158.339 239.438 160.501 239.345 162.633 239.166C163.916 239.057 165.177 238.917 166.421 238.753C167.666 238.582 168.895 238.388 170.109 238.147C170.918 237.991 171.719 237.828 172.513 237.649C180.02 235.953 186.741 233.129 192.187 229.48L192.218 229.535C192.311 229.465 192.412 229.395 192.506 229.317C192.793 229.099 193.066 228.897 193.322 228.679C198.223 225.186 201.996 220.993 204.252 216.365C204.486 215.874 204.711 215.384 204.914 214.886C205.054 214.544 205.186 214.202 205.31 213.852C205.676 212.817 205.972 211.759 206.197 210.686C206.236 210.507 206.267 210.32 206.298 210.141C206.361 209.822 206.407 209.511 206.446 209.192C206.571 208.243 206.633 207.278 206.633 206.314C207.605 205.637 208.554 204.937 209.496 204.221C209.962 203.863 210.437 203.505 210.896 203.132C211.814 202.385 212.716 201.63 213.595 200.86C214.039 200.479 214.482 200.082 214.918 199.678C215.781 198.877 216.629 198.06 217.462 197.227C218.123 196.566 218.777 195.889 219.422 195.197C220.068 194.505 220.698 193.805 221.305 193.089C221.919 192.381 222.518 191.657 223.117 190.926C227.847 185.037 231.745 178.44 234.678 171.252C234.856 171.206 235.043 171.167 235.222 171.128C235.44 171.081 235.666 171.027 235.876 170.972C236.28 170.871 236.677 170.762 237.081 170.646C237.478 170.521 237.883 170.397 238.272 170.264C238.668 170.132 239.065 169.984 239.462 169.829L239.501 169.813L239.804 169.689L239.827 169.665C240.232 169.502 240.629 169.331 241.018 169.152C241.166 169.09 241.313 169.027 241.461 168.95C241.772 168.802 242.076 168.654 242.379 168.491C243.585 167.884 244.744 167.184 245.857 166.421C246.269 166.141 246.666 165.846 247.07 165.542C250.135 163.201 252.741 160.299 254.756 156.962C254.974 156.604 255.176 156.254 255.378 155.888C255.503 155.67 255.62 155.437 255.744 155.211C256.102 154.535 256.429 153.834 256.74 153.126C257.378 151.641 257.891 150.124 258.296 148.591C258.428 148.078 258.552 147.564 258.661 147.051C259.408 143.433 259.494 139.731 258.934 136.09C258.755 134.977 258.521 133.873 258.234 132.768C258.234 132.768 258.234 132.763 258.234 132.753C257.992 131.873 257.72 131.01 257.401 130.146C257.751 129.843 258.086 129.54 258.42 129.221C259.377 128.326 260.287 127.377 261.127 126.373C261.688 125.697 262.232 124.989 262.738 124.265C263.243 123.542 263.726 122.787 264.169 122.009C264.768 120.967 265.313 119.901 265.787 118.781C269.07 111.173 269.21 102.717 266.176 94.9995C265.873 94.2371 265.538 93.4825 265.173 92.7435C264.932 92.2456 264.675 91.7633 264.41 91.2888C264.146 90.8142 263.866 90.3397 263.57 89.8807C263.407 89.6162 263.243 89.3595 263.064 89.1028C262.761 88.6516 262.458 88.216 262.131 87.7803C261.159 86.4889 260.093 85.2832 258.949 84.1629L258.965 84.1474L271.987 71.1015C272.096 71.0004 272.19 70.8992 272.291 70.7903C272.431 70.6192 272.555 70.4558 272.656 70.2847C272.765 70.1057 272.859 69.9268 272.929 69.7479C272.991 69.6234 273.053 69.4912 273.1 69.3589C273.248 68.9466 273.341 68.511 273.38 68.0364L275.519 30.5946C275.543 30.0345 275.48 29.4744 275.325 28.9454V28.961ZM207.325 54.2048L229.777 31.7537L231.752 38.0317L206.345 62.202C206.081 60.2182 205.66 58.289 205.054 56.4219L207.325 54.2126V54.2048ZM206.617 67.1107L234.39 40.6922L242.605 43.2905C242.683 43.3138 242.745 43.3838 242.776 43.4616L245.366 51.661L62.1466 234.879C58.218 230.78 54.9429 226.439 52.718 222.401L177.235 97.8934C193.377 96.7499 206.205 83.455 206.617 67.1107ZM116.034 221.374L113.335 223.973C113.405 224.058 113.506 224.144 113.592 224.222L88.5731 249.248C87.3751 250.438 84.5123 250.197 80.8326 248.688L177.764 151.765C178.285 153.866 179.024 155.904 179.989 157.856L116.252 221.577C116.182 221.507 116.097 221.452 116.034 221.374ZM205.023 112.262C190.693 113.849 178.931 125.362 177.064 139.645C176.729 142.22 176.698 144.764 176.962 147.253L77.2464 246.968C73.2244 244.728 68.8835 241.461 64.7682 237.54L248.004 54.306L256.188 56.8965C256.281 56.9198 256.343 56.982 256.366 57.0676L258.957 65.267L211.993 112.223C209.706 112.005 207.38 112.005 205.023 112.262ZM50.3609 211.176L165.122 96.4309C167.331 97.1388 169.642 97.6211 171.984 97.8467L50.9754 218.838C49.2562 214.676 49.4584 212.171 50.3609 211.176ZM222.581 115.241C220.628 114.292 218.605 113.545 216.505 113.016L261.61 67.912L267.927 69.9035L222.581 115.241ZM269.708 66.535L262.722 64.3257C262.637 64.3024 262.574 64.2401 262.551 64.1546L259.953 55.9396C259.564 54.6871 258.576 53.7147 257.339 53.3102L249.124 50.7197C249.038 50.6964 248.976 50.6341 248.953 50.5486L246.362 42.3336C245.958 41.0811 244.985 40.1087 243.733 39.7198L235.518 37.1215C235.448 37.0981 235.37 37.0359 235.347 36.9581L233.176 30.0423L260.186 29.42L271.202 40.4277L269.716 66.535H269.708Z" fill="#ED4138"/>
<path d="M275.325 28.961C275.301 28.8443 275.255 28.7354 275.208 28.6187C275.13 28.4009 275.029 28.1831 274.912 27.9808C274.858 27.8719 274.796 27.7708 274.734 27.6696C274.562 27.4051 274.368 27.1562 274.142 26.9228C273.341 26.0749 272.197 25.5615 271.062 25.4525C270.883 25.4292 270.704 25.4292 270.525 25.4292L250.905 25.8882L231.737 26.3316C231.698 26.3316 231.659 26.3316 231.612 26.3316C231.488 26.3316 231.364 26.3549 231.247 26.3627C231.006 26.3938 230.78 26.4327 230.554 26.5027C230.438 26.5339 230.337 26.5728 230.236 26.6117C230.173 26.635 230.111 26.6506 230.057 26.6817C230.018 26.6817 229.979 26.705 229.932 26.7284C229.567 26.8839 229.24 27.0784 228.952 27.3196C228.897 27.3429 228.843 27.3896 228.796 27.4285C228.75 27.4752 228.695 27.5218 228.649 27.5685C228.602 27.6152 228.547 27.6619 228.508 27.7085L210.639 45.5698L204.688 51.521L204.105 52.0811L203.513 52.6412C200.853 47.079 196.605 42.3336 191.23 39.0974C190.786 38.8252 190.335 38.5685 189.861 38.3195C189.402 38.0628 188.927 37.8294 188.453 37.6038C187.496 37.1448 186.508 36.7403 185.496 36.3747C185.411 36.3514 185.317 36.3202 185.224 36.2969C185.131 36.2658 185.03 36.2347 184.928 36.2113C184.711 36.1491 184.493 36.0869 184.252 36.0324C184.104 35.9935 183.948 35.9546 183.785 35.9157C183.66 35.8846 183.536 35.8535 183.419 35.8301C183.163 35.7679 182.898 35.7057 182.618 35.6512C182.47 35.6279 182.33 35.589 182.182 35.5656C181.863 35.5034 181.537 35.4412 181.194 35.3789C180.852 35.3167 180.494 35.2545 180.129 35.2C179.763 35.1378 179.374 35.0755 178.985 35.0211C167.425 33.333 145.059 32.9362 125.548 45.0331C119.94 48.5104 115 52.7424 110.729 57.7056C109.453 59.1914 108.232 60.7473 107.072 62.3654C106.684 62.9099 106.31 63.4545 105.929 64.0146C105.089 65.2593 104.287 66.5506 103.517 67.8653C103.261 68.3087 103.012 68.7522 102.763 69.1956C102.436 69.8024 102.109 70.4092 101.783 71.0159C101.541 71.4749 101.316 71.9417 101.082 72.4007C100.74 73.1008 100.398 73.8165 100.071 74.5322C99.7443 75.2557 99.4253 75.9791 99.1142 76.7182C98.0017 79.3476 97.006 82.0781 96.1113 84.9409C95.6679 86.3723 95.2556 87.827 94.8589 89.3051C93.8865 93.0158 93.0852 96.8977 92.455 100.966C90.8291 111.461 91.4359 124.304 92.9218 136.634C93.0463 137.591 93.163 138.54 93.2874 139.489C93.3574 139.964 93.4119 140.439 93.4819 140.921C93.6142 141.87 93.7464 142.803 93.8865 143.737C94.7266 149.346 95.6913 154.721 96.6637 159.576L47.7859 208.461H47.7703C47.7703 208.461 47.7314 208.5 47.7081 208.523C47.6847 208.546 47.6614 208.57 47.6459 208.593L28.2441 227.995C28.0885 228.142 27.9485 228.306 27.8085 228.469C27.7307 228.578 27.6529 228.679 27.5751 228.78C27.4661 228.936 27.365 229.099 27.2717 229.27C27.1161 229.558 26.9761 229.854 26.8594 230.173C26.5482 231.013 26.4004 231.962 26.4004 233.02C26.4004 239.407 32.2349 249.372 41.2745 258.412C46.1756 263.313 51.4344 267.366 56.3121 270.011C56.6621 270.197 57.0122 270.376 57.3545 270.555C57.5256 270.641 57.6968 270.726 57.8679 270.812C58.0391 270.897 58.2102 270.983 58.3736 271.061C58.8092 271.263 59.2293 271.45 59.6494 271.621C60.8863 272.142 62.0221 272.523 63.0568 272.796C64.426 273.153 65.6162 273.301 66.6509 273.301C66.7987 273.301 66.9465 273.301 67.0943 273.301C67.1099 273.301 67.1176 273.301 67.1332 273.301C67.561 273.278 67.9656 273.231 68.339 273.161C68.6813 273.091 69.0002 273.006 69.2958 272.905C69.5603 272.819 69.8015 272.726 70.0271 272.609C70.1983 272.531 70.3616 272.438 70.5172 272.352C70.6339 272.282 70.7428 272.212 70.8517 272.134C71.0073 272.025 71.1551 271.917 71.2951 271.8C71.4352 271.675 71.5674 271.559 71.6919 271.434L116.377 226.765C118.718 228.726 121.355 230.492 124.249 232.032C124.662 232.25 125.082 232.468 125.502 232.686C125.875 232.872 126.256 233.051 126.645 233.238C127.221 233.502 127.805 233.775 128.396 234.031C128.987 234.288 129.586 234.529 130.193 234.77C132.62 235.719 135.164 236.536 137.817 237.205C138.696 237.423 139.59 237.633 140.485 237.828C145.456 238.87 150.723 239.43 156.129 239.43C158.339 239.43 160.501 239.337 162.633 239.158C163.916 239.049 165.177 238.909 166.421 238.746C167.666 238.574 168.895 238.38 170.109 238.139C170.918 237.983 171.719 237.82 172.513 237.641C180.02 235.945 186.741 233.121 192.187 229.473L192.218 229.527C192.319 229.457 192.42 229.387 192.513 229.309C192.801 229.091 193.073 228.889 193.33 228.671C198.231 225.178 202.004 220.985 204.26 216.357C204.501 215.867 204.719 215.377 204.921 214.879C205.061 214.536 205.194 214.194 205.318 213.844C205.692 212.809 205.987 211.751 206.205 210.678C206.244 210.499 206.275 210.312 206.306 210.133C206.368 209.814 206.415 209.503 206.454 209.184C206.578 208.235 206.648 207.278 206.648 206.314C207.613 205.637 208.562 204.937 209.503 204.213C209.97 203.855 210.445 203.498 210.904 203.124C211.822 202.385 212.724 201.638 213.603 200.853C214.047 200.471 214.49 200.075 214.926 199.67C215.789 198.869 216.637 198.06 217.47 197.22C218.139 196.558 218.792 195.882 219.43 195.189C220.076 194.497 220.706 193.797 221.313 193.081C221.935 192.373 222.534 191.65 223.125 190.918C227.855 185.029 231.753 178.433 234.685 171.245C234.864 171.206 235.051 171.167 235.23 171.12C235.448 171.073 235.673 171.019 235.883 170.965C236.288 170.863 236.685 170.754 237.089 170.638C237.486 170.513 237.89 170.389 238.279 170.257C238.676 170.124 239.073 169.977 239.47 169.821L239.509 169.805L239.82 169.681L239.835 169.658C240.24 169.494 240.637 169.323 241.026 169.144C241.173 169.082 241.321 169.02 241.469 168.942C241.78 168.794 242.084 168.646 242.387 168.483C243.593 167.876 244.752 167.176 245.864 166.414C246.277 166.134 246.673 165.838 247.078 165.535C250.143 163.193 252.749 160.291 254.764 156.954C254.982 156.596 255.184 156.246 255.386 155.88C255.511 155.663 255.627 155.429 255.752 155.204C256.11 154.527 256.436 153.827 256.748 153.119C257.386 151.633 257.899 150.116 258.303 148.583C258.436 148.07 258.56 147.557 258.669 147.043C259.416 143.426 259.502 139.723 258.941 136.082C258.77 134.97 258.537 133.865 258.241 132.76C258.241 132.76 258.241 132.755 258.241 132.745C258.008 131.866 257.736 130.994 257.417 130.131C257.767 129.828 258.109 129.524 258.436 129.213C259.393 128.318 260.303 127.369 261.143 126.366C261.703 125.689 262.248 124.981 262.753 124.258C263.259 123.534 263.749 122.779 264.185 122.002C264.784 120.959 265.328 119.893 265.803 118.773C269.086 111.165 269.226 102.709 266.192 94.9918C265.888 94.2294 265.554 93.4748 265.188 92.7358C264.947 92.2379 264.69 91.7556 264.426 91.281C264.161 90.8065 263.881 90.332 263.586 89.873C263.422 89.6085 263.259 89.3518 263.08 89.0951C262.777 88.6439 262.473 88.2082 262.147 87.7726C261.19 86.489 260.124 85.2676 258.973 84.1474L272.011 71.1171C272.112 71.016 272.213 70.907 272.299 70.7981C272.439 70.627 272.563 70.4636 272.664 70.2925C272.781 70.1136 272.866 69.9346 272.936 69.7557C272.999 69.6312 273.061 69.499 273.108 69.3667C273.263 68.9544 273.357 68.5188 273.395 68.0443L275.535 30.6024C275.558 30.0423 275.496 29.4822 275.333 28.9532L275.325 28.961ZM260.178 29.42L271.194 40.4277L269.708 66.5351L262.722 64.3257C262.637 64.3024 262.574 64.2402 262.551 64.1546L259.953 55.9396C259.564 54.6872 258.576 53.7148 257.339 53.3102L249.124 50.7197C249.038 50.6964 248.976 50.6342 248.953 50.5486L246.362 42.3336C245.958 41.0812 244.985 40.1088 243.733 39.7198L235.518 37.1215C235.448 37.0982 235.37 37.0359 235.347 36.9581L233.176 30.0423L260.186 29.42H260.178ZM176.97 147.245L77.2542 246.961C73.2322 244.72 68.8913 241.453 64.776 237.532L248.011 54.2982L256.195 56.8887C256.289 56.9121 256.351 56.9743 256.374 57.0599L258.965 65.2593L212.001 112.215C209.714 111.997 207.388 111.997 205.03 112.254C190.701 113.841 178.938 125.354 177.071 139.637C176.737 142.212 176.706 144.756 176.97 147.245ZM207.325 54.2049L229.777 31.7538L231.752 38.0317L206.345 62.202C206.081 60.2183 205.66 58.289 205.054 56.422L207.325 54.2126V54.2049ZM206.617 67.1107L234.39 40.6922L242.605 43.2905C242.683 43.3138 242.745 43.3838 242.776 43.4616L245.366 51.661L62.1466 234.879C58.218 230.78 54.9429 226.439 52.718 222.401L177.235 97.8934C193.377 96.7499 206.205 83.4551 206.617 67.1107ZM96.1658 101.542C96.7726 97.5512 97.5972 93.7626 98.5541 90.1375C102.078 79.0753 110.355 69.1489 122.219 61.9219C138.976 51.7077 159.599 48.666 178.829 53.5825L181.093 54.1582L180.907 39.1363C182.369 39.4164 183.513 39.7042 184.306 39.961C195.423 43.9128 202.883 54.4849 202.883 66.2861C202.883 81.6969 190.343 94.245 174.94 94.245C166.569 94.245 158.704 90.5342 153.36 84.0541L150.474 86.4423C153.469 90.083 157.172 92.9614 161.31 94.914L138.423 117.808L138.556 117.42C134.681 116.043 131.095 113.763 128.186 110.854L125.517 113.499C128.474 116.432 132.005 118.804 135.833 120.391L99.8532 156.371C96.6248 139.645 93.6764 117.614 96.1658 101.534V101.542ZM50.3609 211.176L165.122 96.431C167.331 97.1389 169.642 97.6212 171.984 97.8468L50.9754 218.838C49.2562 214.676 49.4584 212.172 50.3609 211.176ZM69.0236 268.797C67.7166 270.112 64.2393 269.676 59.9606 267.661C54.9118 265.304 49.2173 261.08 43.9117 255.775C35.7979 247.661 30.1345 238.31 30.1345 233.036C30.1345 231.962 30.3834 231.161 30.8891 230.663L46.1133 215.431C46.4556 217.633 47.3036 220.13 48.7272 222.922C51.2399 227.878 55.3163 233.331 60.2407 238.333L60.793 238.893C65.9585 244.059 71.6219 248.33 76.7485 250.951C79.5257 252.383 82.054 253.254 84.24 253.596L69.0313 268.805L69.0236 268.797ZM116.244 221.577C116.174 221.507 116.089 221.452 116.027 221.374L113.327 223.973C113.397 224.058 113.498 224.144 113.584 224.222L88.5653 249.248C87.3673 250.438 84.5045 250.197 80.8249 248.688L177.756 151.765C178.277 153.866 179.016 155.904 179.981 157.856L116.244 221.577ZM219.656 126.615C219.702 126.677 224.969 132.978 226.976 144.453C228.82 155.04 228.174 172.341 214.7 194.676C203.373 206.002 188.429 213.735 171.493 216.59C171.493 216.59 171.462 216.59 171.431 216.59L171.805 218.434L172.124 220.285C172.124 220.285 172.17 220.27 172.194 220.27C179.545 218.753 189.386 217.493 191.44 219.997C192.646 221.468 192.832 224.509 190.047 226.447L190.063 226.47C181.537 232.125 169.479 235.665 156.121 235.665C141.38 235.665 127.867 231.386 119.014 224.097L181.91 161.209C182.68 162.399 183.536 163.559 184.501 164.679L187.34 162.228C182.05 156.09 179.74 148.241 180.79 140.112C182.439 127.525 192.801 117.373 205.443 115.973C213.572 115.078 221.375 117.56 227.396 122.966C227.645 123.184 227.871 123.417 228.104 123.643H217.143L219.656 126.607V126.615ZM253.434 151.703C250.501 158.51 245.102 163.745 238.225 166.445L238.054 166.515C237.447 166.748 236.84 166.95 236.233 167.137C238.808 159.716 240.255 151.929 240.52 143.97L238.645 143.9H240.52C240.52 141.745 240.302 139.591 239.859 137.49C240.419 137.436 241.002 137.373 241.601 137.288C243.849 136.969 246.09 136.401 248.284 135.569L248.323 135.553C249.801 138.027 249.085 144.562 248.019 148.778L247.459 151.018H253.698C253.613 151.236 253.527 151.47 253.441 151.687L253.434 151.703ZM264.675 104.42C264.994 108.792 264.27 113.219 262.481 117.357C259.618 124.032 254.344 129.205 247.599 131.975L247.28 132.099C245.242 132.9 243.149 133.46 241.08 133.748C240.302 133.865 239.594 133.919 238.902 133.966C237.182 128.715 234.094 123.939 229.893 120.173C228.656 119.061 227.334 118.065 225.965 117.163L251.115 92.0123C252.92 93.646 255.122 98.6947 256.32 103.098L256.67 104.428H264.675V104.42ZM222.581 115.241C220.628 114.292 218.605 113.545 216.505 113.016L261.61 67.912L267.927 69.9035L222.581 115.241Z" fill="black"/>
<path d="M271.194 40.4277L269.708 66.535L262.722 64.3257C262.636 64.3023 262.574 64.2401 262.551 64.1545L259.952 55.9396C259.563 54.6871 258.575 53.7147 257.339 53.3102L249.123 50.7197C249.038 50.6963 248.976 50.6341 248.952 50.5485L246.362 42.3336C245.957 41.0811 244.985 40.1087 243.732 39.7197L235.517 37.1214C235.447 37.0981 235.37 37.0359 235.346 36.9581L233.176 30.0423L260.186 29.4199L271.201 40.4277H271.194Z" fill="white"/>
<path d="M245.358 51.661L62.1386 234.879C58.21 230.78 54.9349 226.439 52.71 222.401L177.227 97.8934C193.369 96.7498 206.197 83.455 206.609 67.1107L234.382 40.6921L242.597 43.2904C242.674 43.3138 242.737 43.3838 242.768 43.4616L245.358 51.661Z" fill="#F7BE1B"/>
<path d="M179.988 157.856L116.252 221.577C116.182 221.507 116.096 221.452 116.034 221.374L113.334 223.973C113.404 224.058 113.505 224.144 113.591 224.222L88.5725 249.248C87.3745 250.438 84.5117 250.197 80.832 248.688L177.763 151.765C178.284 153.866 179.023 155.904 179.988 157.856Z" fill="#F7BE1B"/>
<path d="M171.983 97.8467L50.9753 218.838C49.256 214.676 49.4583 212.171 50.3607 211.176L165.122 96.4309C167.331 97.1388 169.642 97.6211 171.983 97.8467Z" fill="#F7BE1B"/>
<path d="M231.753 38.0318L206.345 62.2021C206.081 60.2184 205.661 58.2892 205.054 56.4221L207.325 54.2128L229.777 31.7617L231.753 38.0396V38.0318Z" fill="#F7BE1B"/>
<path d="M267.927 69.9036L222.581 115.241C220.628 114.292 218.605 113.546 216.505 113.017L261.61 67.9121L267.927 69.9036Z" fill="#F7BE1B"/>
<path d="M258.964 65.2594L212 112.215C209.713 111.997 207.387 111.997 205.03 112.254C190.7 113.841 178.938 125.355 177.071 139.637C176.736 142.212 176.705 144.756 176.97 147.246L77.2535 246.961C73.2316 244.72 68.8907 241.453 64.7754 237.532L248.011 54.2983L256.195 56.8889C256.288 56.9122 256.35 56.9744 256.374 57.06L258.964 65.2594Z" fill="#F7BE1B"/>
</g>
<defs>
<filter id="filter0_d_131_2009" x="0.955078" y="0" width="300.02" height="298.746" filterUnits="userSpaceOnUse" color-interpolation-filters="sRGB">
<feFlood flood-opacity="0" result="BackgroundImageFix"/>
<feColorMatrix in="SourceAlpha" type="matrix" values="0 0 0 0 0 0 0 0 0 0 0 0 0 0 0 0 0 0 127 0" result="hardAlpha"/>
<feOffset/>
<feGaussianBlur stdDeviation="9"/>
<feColorMatrix type="matrix" values="0 0 0 0 0 0 0 0 0 0 0 0 0 0 0 0 0 0 0.1 0"/>
<feBlend mode="normal" in2="BackgroundImageFix" result="effect1_dropShadow_131_2009"/>
<feBlend mode="normal" in="SourceGraphic" in2="effect1_dropShadow_131_2009" result="shape"/>
</filter>
</defs>
</svg>
