<svg width="289" height="288" viewBox="0 0 289 288" fill="none" xmlns="http://www.w3.org/2000/svg">
<g filter="url(#filter0_d_131_2000)">
<path d="M144.7 271.986C215.389 271.986 272.694 214.681 272.694 143.993C272.694 73.3044 215.389 16 144.7 16C74.0109 16 16.7061 73.3044 16.7061 143.993C16.7061 214.681 74.0109 271.986 144.7 271.986Z" fill="#282560"/>
<path d="M145.058 99.5342L124.582 140.718L94.3828 143.923L65.7236 107.951L98.5603 104.466L110.509 121.519L118.141 102.389L145.058 99.5342Z" fill="white"/>
<path d="M142.973 119.029C141.681 106.831 154.51 97.5893 177.56 95.1388C200.602 92.6961 215.095 99.0441 216.387 111.242C217.709 123.728 205.192 133.125 181.854 135.599C158.516 138.073 144.303 131.515 142.981 119.029H142.973ZM188.365 114.33C188.062 111.46 184.406 109.951 179.186 110.503C173.966 111.055 170.706 113.304 171.01 116.174C171.313 119.045 175 120.787 180.213 120.235C185.433 119.683 188.677 117.318 188.365 114.33Z" fill="white"/>
<path d="M108.036 169.019L89.5831 170.979L87.5449 151.741L154.261 144.662L156.299 163.9L137.846 165.861L140.39 189.829L110.58 192.987L108.036 169.019Z" fill="white"/>
<path d="M157.154 144.359L215.398 138.182L217.11 154.332L188.552 157.358L188.777 159.458L206.569 157.568L207.277 164.266L189.485 166.156L189.711 168.257L219.195 165.129L220.906 181.279L161.744 187.557L157.162 144.351L157.154 144.359Z" fill="white"/>
</g>
<defs>
<filter id="filter0_d_131_2000" x="0.926055" y="0.22" width="287.548" height="287.546" filterUnits="userSpaceOnUse" color-interpolation-filters="sRGB">
<feFlood flood-opacity="0" result="BackgroundImageFix"/>
<feColorMatrix in="SourceAlpha" type="matrix" values="0 0 0 0 0 0 0 0 0 0 0 0 0 0 0 0 0 0 127 0" result="hardAlpha"/>
<feOffset/>
<feGaussianBlur stdDeviation="7.89"/>
<feColorMatrix type="matrix" values="0 0 0 0 0 0 0 0 0 0 0 0 0 0 0 0 0 0 0.1 0"/>
<feBlend mode="normal" in2="BackgroundImageFix" result="effect1_dropShadow_131_2000"/>
<feBlend mode="normal" in="SourceGraphic" in2="effect1_dropShadow_131_2000" result="shape"/>
</filter>
</defs>
</svg>
