<svg width="280" height="388" viewBox="0 0 280 388" fill="none" xmlns="http://www.w3.org/2000/svg">
<path d="M193.963 85.9243L113.636 47.7769L11.0835 263.696L91.4168 301.852L60.166 367.641L255.419 247.432L225.213 20.1346L193.963 85.9243Z" fill="#ED4138"/>
<path d="M30.2821 261.541L40.5691 239.874L123.324 270.381L47.3829 225.523L57.6698 203.856L146.258 264.208L133.026 292.068L30.2736 261.548L30.2821 261.541Z" fill="#F7BE1B"/>
<path d="M134.601 238.664L77.7652 211.673C65.6629 205.923 60.8347 194.322 68.5812 177.999C76.3355 161.676 88.3804 158.093 100.483 163.835L157.319 190.826C169.414 196.575 174.25 208.176 166.503 224.5C158.749 240.822 146.704 244.406 134.601 238.664ZM149.897 216.621C150.495 215.355 150.262 214.039 148.714 213.301L88.4991 184.701C86.9512 183.963 85.7772 184.619 85.1791 185.885C84.5809 187.15 84.8145 188.467 86.3623 189.205L146.577 217.804C148.125 218.542 149.299 217.887 149.897 216.621Z" fill="#F7BE1B"/>
<path d="M120.366 116.897L115.223 127.727L193.442 164.88L183.155 186.548L104.936 149.394L99.793 160.224L82.3459 151.942L102.927 108.608L120.374 116.89L120.366 116.897Z" fill="#F7BE1B"/>
<path d="M123.632 64.9973L140.23 72.883L131.279 91.7369L153.646 102.358L161.664 85.4764L178.262 93.3621L170.244 110.243L193.742 121.401L202.693 102.547L219.291 110.432L200.046 150.953L104.379 105.517L123.624 64.9964L123.632 64.9973Z" fill="#F7BE1B"/>
</svg>
