<svg width="424" height="320" viewBox="0 0 424 320" fill="none" xmlns="http://www.w3.org/2000/svg">
<g filter="url(#filter0_d_131_1986)">
<path d="M90.769 159.127L88.1595 249.424L330.873 256.433L333.482 166.136L407.445 168.273L215.787 35.9084L16.8066 156.99L90.769 159.127Z" fill="white"/>
<path d="M109.736 136.503L131.92 137.141L136.923 218.595L146.617 137.567L168.801 138.205L150.702 235.713L122.177 234.887L109.735 136.495L109.736 136.503Z" fill="#282560"/>
<path d="M217.079 143.788L202.875 161.399L202.87 161.688L224.702 159.437L224.42 169.232L202.745 166.011L202.739 166.299L216.066 183.984L206.844 188.911L198.781 168.493L198.492 168.487L188.543 188.531L180.482 183.11L194.673 165.932L194.679 165.643L173.279 167.762L173.561 157.968L194.659 161.314L194.664 161.025L181.632 143.057L190.565 138.269L198.917 158.549L199.205 158.554L208.578 138.643L217.079 143.788Z" fill="#282560"/>
<path d="M274.158 159.131L263.07 158.811L260.76 238.902L238.576 238.264L240.886 158.173L229.798 157.853L230.311 139.992L274.681 141.276L274.168 159.137L274.158 159.131Z" fill="#282560"/>
<path d="M319.33 142.559L318.841 159.553L299.541 158.995L298.875 181.895L316.159 182.397L315.67 199.391L298.387 198.889L297.691 222.945L316.992 223.503L316.503 240.497L275.019 239.301L277.851 141.354L319.336 142.55L319.33 142.559Z" fill="#282560"/>
</g>
<defs>
<filter id="filter0_d_131_1986" x="0.96664" y="20.0684" width="422.318" height="252.205" filterUnits="userSpaceOnUse" color-interpolation-filters="sRGB">
<feFlood flood-opacity="0" result="BackgroundImageFix"/>
<feColorMatrix in="SourceAlpha" type="matrix" values="0 0 0 0 0 0 0 0 0 0 0 0 0 0 0 0 0 0 127 0" result="hardAlpha"/>
<feOffset/>
<feGaussianBlur stdDeviation="7.92"/>
<feColorMatrix type="matrix" values="0 0 0 0 0 0 0 0 0 0 0 0 0 0 0 0 0 0 0.1 0"/>
<feBlend mode="normal" in2="BackgroundImageFix" result="effect1_dropShadow_131_1986"/>
<feBlend mode="normal" in="SourceGraphic" in2="effect1_dropShadow_131_1986" result="shape"/>
</filter>
</defs>
</svg>
