<svg width="349" height="345" viewBox="0 0 349 345" fill="none" xmlns="http://www.w3.org/2000/svg">
<g filter="url(#filter0_d_131_1970)">
<path d="M236.561 281.783C298.301 247.357 320.445 169.4 286.02 107.661C251.595 45.9208 173.637 23.7779 111.897 58.2031C50.1569 92.6283 28.0133 170.585 62.4382 232.325C96.8631 294.065 174.82 316.208 236.561 281.783Z" fill="#F7BE1B"/>
<path d="M156.988 129.006L154.458 174.933L127.989 189.808L87.4452 168.085L116.235 151.907L133.953 162.853L133.409 142.261L157.005 129.006L156.988 129.006Z" fill="#ED4138"/>
<path d="M162.772 147.736C156.768 137.047 164.898 123.482 185.101 112.128C205.304 100.774 221.12 100.88 227.128 111.576C233.137 122.272 225.492 136.101 205.03 147.599C184.569 159.097 168.925 158.69 162.772 147.736ZM202.614 125.486C201.202 122.969 197.245 123.028 192.666 125.599C188.087 128.17 185.981 131.518 187.397 134.041C188.813 136.565 192.884 136.709 197.463 134.138C202.042 131.568 204.091 128.118 202.618 125.492L202.614 125.486Z" fill="#ED4138"/>
<path d="M150.439 207.467L134.264 216.557L124.788 199.689L183.278 166.827L192.754 183.695L176.579 192.784L188.384 213.796L162.254 228.481L150.449 207.47L150.439 207.467Z" fill="#ED4138"/>
<path d="M185.805 165.4L236.866 136.707L244.824 150.867L219.784 164.936L220.814 166.784L236.418 158.012L239.72 163.885L224.122 172.653L225.153 174.501L251.004 159.971L258.962 174.131L207.099 203.272L185.818 165.393L185.805 165.4Z" fill="#ED4138"/>
</g>
<defs>
<filter id="filter0_d_131_1970" x="30.4319" y="26.1966" width="287.594" height="287.593" filterUnits="userSpaceOnUse" color-interpolation-filters="sRGB">
<feFlood flood-opacity="0" result="BackgroundImageFix"/>
<feColorMatrix in="SourceAlpha" type="matrix" values="0 0 0 0 0 0 0 0 0 0 0 0 0 0 0 0 0 0 127 0" result="hardAlpha"/>
<feOffset/>
<feGaussianBlur stdDeviation="7.89"/>
<feColorMatrix type="matrix" values="0 0 0 0 0 0 0 0 0 0 0 0 0 0 0 0 0 0 0.1 0"/>
<feBlend mode="normal" in2="BackgroundImageFix" result="effect1_dropShadow_131_1970"/>
<feBlend mode="normal" in="SourceGraphic" in2="effect1_dropShadow_131_1970" result="shape"/>
</filter>
</defs>
</svg>
