<svg width="331" height="332" viewBox="0 0 331 332" fill="none" xmlns="http://www.w3.org/2000/svg">
<g filter="url(#filter0_d_131_1952)">
<path d="M285.059 120.63C260.005 54.5295 186.111 21.2541 120.011 46.3073C53.9107 71.3606 20.636 145.255 45.6894 211.356C70.7429 277.456 144.637 310.732 210.737 285.679C276.837 260.625 310.112 186.731 285.059 120.63Z" fill="#ED4138"/>
<path d="M121.57 158.369L158.857 185.301L157.078 215.618L116.897 238.01L118.83 205.048L137.608 196.051L119.983 185.393L121.566 158.379L121.57 158.369Z" fill="white"/>
<path d="M140.462 163.613C128.219 162.896 121.191 148.721 122.547 125.587C123.903 102.452 132.532 89.1984 144.775 89.9156C157.317 90.6527 164.535 104.539 163.157 127.965C161.785 151.388 152.994 164.346 140.452 163.609L140.462 163.613ZM143.248 118.065C140.363 117.894 138.276 121.256 137.967 126.498C137.658 131.74 139.339 135.32 142.224 135.491C145.228 135.667 147.433 132.311 147.735 127.071C148.037 121.832 146.244 118.244 143.241 118.068L143.248 118.065Z" fill="white"/>
<path d="M184.069 206.253L182.986 224.775L163.672 223.642L167.598 156.672L186.912 157.804L185.829 176.326L209.892 177.739L208.139 207.662L184.077 206.25L184.069 206.253Z" fill="white"/>
<path d="M167.761 153.765L171.19 95.2947L187.406 96.2447L185.728 124.917L187.838 125.041L188.889 107.18L195.612 107.577L194.561 125.438L196.671 125.562L198.408 95.9685L214.625 96.9184L211.145 156.307L167.768 153.763L167.761 153.765Z" fill="white"/>
</g>
<defs>
<filter id="filter0_d_131_1952" x="21.5667" y="22.1844" width="287.615" height="287.617" filterUnits="userSpaceOnUse" color-interpolation-filters="sRGB">
<feFlood flood-opacity="0" result="BackgroundImageFix"/>
<feColorMatrix in="SourceAlpha" type="matrix" values="0 0 0 0 0 0 0 0 0 0 0 0 0 0 0 0 0 0 127 0" result="hardAlpha"/>
<feOffset/>
<feGaussianBlur stdDeviation="7.89"/>
<feColorMatrix type="matrix" values="0 0 0 0 0 0 0 0 0 0 0 0 0 0 0 0 0 0 0.1 0"/>
<feBlend mode="normal" in2="BackgroundImageFix" result="effect1_dropShadow_131_1952"/>
<feBlend mode="normal" in="SourceGraphic" in2="effect1_dropShadow_131_1952" result="shape"/>
</filter>
</defs>
</svg>
