<svg width="339" height="351" viewBox="0 0 339 351" fill="none" xmlns="http://www.w3.org/2000/svg">
<g filter="url(#filter0_d_131_1943)">
<path d="M258.344 46.3705L194.788 90.2153L165.241 18.8824L139.603 91.7159L73.7688 51.367L95.8363 125.356L18.8596 131.416L80.2041 178.306L21.4856 228.448L98.6813 230.322L80.6523 305.404L144.2 261.551L173.748 332.892L199.385 260.059L265.22 300.407L243.152 226.41L320.129 220.358L258.784 173.469L317.503 123.326L240.315 121.445L258.344 46.3705Z" fill="#282560"/>
</g>
<path d="M145.63 150.997L148.991 191.313L127.728 207.485L89.7684 193.482L112.89 175.895L129.656 183.281L126.685 165.406L145.63 150.997Z" fill="#F7BE1B"/>
<path d="M152.944 166.615C146.413 158.032 151.854 145.225 168.078 132.882C184.302 120.539 198.098 118.718 204.629 127.301C211.319 136.097 206.174 148.864 189.744 161.366C173.315 173.86 159.634 175.411 152.944 166.615ZM184.954 142.394C183.417 140.369 179.975 140.903 176.304 143.695C172.634 146.488 171.196 149.663 172.74 151.688C174.345 153.792 177.848 153.346 181.518 150.553C185.189 147.761 186.558 144.499 184.961 142.395L184.954 142.394Z" fill="#F7BE1B"/>
<path d="M149.438 220.144L136.449 230.027L126.15 216.485L173.121 180.758L183.42 194.3L170.432 204.184L183.267 221.056L162.281 237.016L149.446 220.144L149.438 220.144Z" fill="#F7BE1B"/>
<path d="M175.153 179.207L216.16 148.02L224.81 159.395L204.702 174.689L205.83 176.169L218.359 166.641L221.946 171.356L209.417 180.883L210.544 182.362L231.301 166.576L239.951 177.951L198.295 209.629L175.161 179.215L175.153 179.207Z" fill="#F7BE1B"/>
<defs>
<filter id="filter0_d_131_1943" x="0.859375" y="0.882324" width="337.27" height="350.01" filterUnits="userSpaceOnUse" color-interpolation-filters="sRGB">
<feFlood flood-opacity="0" result="BackgroundImageFix"/>
<feColorMatrix in="SourceAlpha" type="matrix" values="0 0 0 0 0 0 0 0 0 0 0 0 0 0 0 0 0 0 127 0" result="hardAlpha"/>
<feOffset/>
<feGaussianBlur stdDeviation="9"/>
<feColorMatrix type="matrix" values="0 0 0 0 0 0 0 0 0 0 0 0 0 0 0 0 0 0 0.1 0"/>
<feBlend mode="normal" in2="BackgroundImageFix" result="effect1_dropShadow_131_1943"/>
<feBlend mode="normal" in="SourceGraphic" in2="effect1_dropShadow_131_1943" result="shape"/>
</filter>
</defs>
</svg>
