<svg width="354" height="353" viewBox="0 0 354 353" fill="none" xmlns="http://www.w3.org/2000/svg">
<mask id="mask0_131_1928" style="mask-type:luminance" maskUnits="userSpaceOnUse" x="16" y="16" width="322" height="321">
<path d="M185.547 22.0867L38.3411 108.175C17.483 120.373 10.4628 147.171 22.6611 168.029L108.75 315.234C120.949 336.091 147.746 343.112 168.604 330.913L315.81 244.825C336.669 232.627 343.689 205.829 331.49 184.972L245.401 37.7665C233.203 16.9086 206.405 9.88851 185.547 22.0867Z" fill="white"/>
</mask>
<g mask="url(#mask0_131_1928)">
<path d="M-310.378 46.7107L-115.722 25.3332L-177.459 -160.499C-177.592 -160.896 -177.164 -161.246 -176.798 -161.044L-6.75662 -63.9266L52.53 -250.552C52.6544 -250.949 53.2145 -250.988 53.3857 -250.599L133.863 -72.0794L291.528 -188.217C291.862 -188.466 292.337 -188.17 292.251 -187.758L252.429 3.97116L448.243 2.68761C448.663 2.68761 448.866 3.201 448.554 3.48106L303.64 135.185L462.814 249.245C463.156 249.486 463.016 250.023 462.596 250.07L267.941 271.447L329.678 457.279C329.81 457.676 329.382 458.026 329.017 457.824L158.975 360.707L99.6885 547.333C99.564 547.729 99.0039 547.768 98.8328 547.379L18.3551 368.86L-139.309 484.997C-139.644 485.246 -140.118 484.95 -140.033 484.538L-100.21 292.809L-296.025 294.093C-296.445 294.093 -296.647 293.579 -296.336 293.299L-151.422 161.595L-310.596 47.5353C-310.938 47.2941 -310.798 46.7574 -310.378 46.7107Z" fill="#ED4138"/>
<path d="M354.68 39.6626L207.666 40.6272L237.562 -103.313L119.191 -16.1229L58.7686 -150.145L14.2551 -10.0317L-113.405 -82.9471L-67.0549 56.567L-213.198 72.6157L-93.6915 158.25L-202.486 257.125L-55.4715 256.161L-85.3676 400.101L33.0033 312.911L93.4257 446.933L137.939 306.82L265.599 379.735L219.257 240.221L365.393 224.172L245.894 138.538L354.688 39.6626H354.68ZM183.573 217.326L201.147 301.047L122.528 267.324L87.5367 345.389L43.7544 271.898L-30.4375 314.482L-22.6659 229.291L-107.718 220.135L-51.3562 155.784L-114.789 98.3808L-31.3632 79.4459L-48.9369 -4.27496L29.6815 29.4483L64.6731 -48.617L108.455 24.8741L182.647 -17.7098L174.876 67.4814L259.928 76.6376L203.566 140.988L266.999 198.392L183.573 217.326Z" fill="#F7BE1B"/>
</g>
</svg>
