<svg width="429" height="429" viewBox="0 0 429 429" fill="none" xmlns="http://www.w3.org/2000/svg">
<mask id="mask0_131_1862" style="mask-type:luminance" maskUnits="userSpaceOnUse" x="78" y="78" width="272" height="272">
<path d="M348.937 289.603L336.441 119.53C334.671 95.4314 313.7 77.3314 289.602 79.102L119.53 91.5984C95.4321 93.3691 77.3321 114.34 79.1026 138.438L91.5981 308.511C93.3686 332.609 114.339 350.709 138.437 348.939L308.509 336.442C332.607 334.671 350.707 313.701 348.937 289.603Z" fill="white"/>
</mask>
<g mask="url(#mask0_131_1862)">
<path d="M-166.542 -117.137L17.6378 -50.6273L44.0345 -244.662C44.0923 -245.077 44.629 -245.208 44.8641 -244.858L154.769 -82.7901L290.172 -224.256C290.463 -224.56 290.974 -224.347 290.963 -223.924L284.618 -28.2036L477.308 -63.0599C477.719 -63.135 478.01 -62.6593 477.751 -62.328L357.581 92.2864L533.963 177.348C534.343 177.534 534.297 178.085 533.889 178.202L345.792 232.647L438.487 405.14C438.683 405.51 438.32 405.929 437.924 405.788L253.744 339.279L227.348 533.313C227.29 533.728 226.753 533.86 226.518 533.51L116.613 371.441L-18.7897 512.907C-19.081 513.212 -19.592 512.999 -19.5809 512.575L-13.2358 316.855L-205.926 351.711C-206.337 351.786 -206.628 351.311 -206.369 350.979L-86.1987 196.365L-262.581 111.303C-262.961 111.117 -262.915 110.566 -262.507 110.45L-74.4094 56.0046L-167.105 -116.489C-167.3 -116.859 -166.938 -117.278 -166.542 -117.137Z" fill="#F7BE1B"/>
<path d="M433.688 169.353L301.265 105.494L391.486 -10.5848L246.817 15.5847L251.578 -131.353L149.923 -25.1484L67.4118 -146.826L47.5967 -1.15632L-90.6793 -51.0942L-21.0869 78.4067L-162.301 119.283L-29.878 183.142L-120.099 299.221L24.5693 273.052L19.8083 419.989L121.463 313.785L203.975 435.462L223.79 289.793L362.059 339.728L292.466 210.227L433.681 169.351L433.688 169.353ZM201.833 253.539L180.748 336.446L125.003 271.554L59.2135 326.234L52.263 240.972L-33.1002 246.543L11.3889 173.478L-60.9486 127.805L17.9905 94.847L-13.6887 15.3775L69.5489 35.1122L90.6334 -47.7949L146.379 17.0974L212.168 -37.5833L219.119 47.6788L304.482 42.1082L259.993 115.173L332.33 160.846L253.391 193.804L285.063 273.271L201.825 253.536L201.833 253.539Z" fill="#282560"/>
</g>
</svg>
