<svg width="376" height="376" viewBox="0 0 376 376" fill="none" xmlns="http://www.w3.org/2000/svg">
<g filter="url(#filter0_d_131_1853)">
<path d="M127.152 42.7556L129.431 119.94L53.4877 105.981L100.703 167.077L31.0635 200.418L105.172 222.102L68.4263 290.011L141.123 263.993L151.318 340.53L194.837 276.749L248.073 332.681L245.787 255.499L321.73 269.458L274.512 208.354L344.159 175.011L270.046 153.336L306.789 85.4207L234.094 111.446L223.898 34.9011L180.38 98.6895L127.152 42.7556Z" fill="#F7BE1B"/>
</g>
<path d="M153.75 194.233L189.423 213.313L191.45 239.947L159.071 264.205L156.873 235.241L172.185 225.183L155.562 217.972L153.757 194.231L153.75 194.233Z" fill="black"/>
<path d="M170.829 196.581C160.071 197.398 152.28 185.87 150.73 165.543C149.187 145.214 155.151 132.646 165.909 131.829C176.667 131.012 184.852 142.251 186.416 162.831C187.98 183.411 181.845 195.741 170.827 196.574L170.829 196.581ZM167.896 156.543C165.363 156.733 163.941 159.91 164.288 164.519C164.634 169.12 166.522 172.045 169.063 171.853C171.603 171.661 173.229 168.466 172.876 163.867C172.523 159.267 170.538 156.342 167.898 156.55L167.896 156.543Z" fill="black"/>
<path d="M213.865 228.607L215.1 244.878L198.129 246.165L193.66 187.326L210.631 186.04L211.866 202.311L233.004 200.705L235.004 227.002L213.865 228.607Z" fill="black"/>
<path d="M193.475 184.776L189.569 133.409L203.818 132.327L205.73 157.516L207.585 157.373L206.395 141.675L212.301 141.226L213.49 156.923L215.346 156.78L213.37 130.773L227.619 129.691L231.58 181.869L193.473 184.769L193.475 184.776Z" fill="black"/>
<defs>
<filter id="filter0_d_131_1853" x="13.0635" y="16.9011" width="349.096" height="341.629" filterUnits="userSpaceOnUse" color-interpolation-filters="sRGB">
<feFlood flood-opacity="0" result="BackgroundImageFix"/>
<feColorMatrix in="SourceAlpha" type="matrix" values="0 0 0 0 0 0 0 0 0 0 0 0 0 0 0 0 0 0 127 0" result="hardAlpha"/>
<feOffset/>
<feGaussianBlur stdDeviation="9"/>
<feColorMatrix type="matrix" values="0 0 0 0 0 0 0 0 0 0 0 0 0 0 0 0 0 0 0.1 0"/>
<feBlend mode="normal" in2="BackgroundImageFix" result="effect1_dropShadow_131_1853"/>
<feBlend mode="normal" in="SourceGraphic" in2="effect1_dropShadow_131_1853" result="shape"/>
</filter>
</defs>
</svg>
