<svg width="322" height="311" viewBox="0 0 322 311" fill="none" xmlns="http://www.w3.org/2000/svg">
<path d="M281.029 54.2606L208.139 79.7427L198.51 3.13234L154.522 66.5915L101.706 10.2678L103.418 87.4585L27.5789 72.9406L74.3381 134.386L4.45135 167.217L78.3998 189.442L41.1495 257.078L114.04 231.596L123.668 308.206L167.657 244.747L220.473 301.071L218.76 223.88L294.6 238.398L247.84 176.952L317.727 144.121L243.779 121.897L281.029 54.2606Z" fill="black"/>
<path d="M144.652 125.356L137.231 165.127L112.451 175.1L79.5508 151.553L106.498 140.707L120.706 152.266L122.563 134.242L144.652 125.356Z" fill="#ED4138"/>
<path d="M147.573 142.348C143.546 132.337 152.182 121.431 171.093 113.822C190.004 106.212 203.788 108.101 207.815 118.111C211.941 128.361 203.601 139.315 184.451 147.023C165.301 154.732 151.699 152.598 147.573 142.356L147.573 142.348ZM184.857 127.46C183.91 125.1 180.446 124.702 176.166 126.431C171.886 128.16 169.666 130.84 170.613 133.192C171.56 135.544 175.098 136.143 179.378 134.414C183.658 132.692 185.838 129.913 184.857 127.46Z" fill="#ED4138"/>
<path d="M130.039 193.05L114.899 199.144L108.549 183.357L163.292 161.328L169.642 177.115L154.502 183.209L162.417 202.876L137.953 212.717L130.039 193.05Z" fill="#ED4138"/>
<path d="M165.668 160.365L213.462 141.135L218.798 154.393L195.36 163.822L196.052 165.55L210.651 159.67L212.867 165.169L198.267 171.049L198.959 172.776L223.153 163.042L228.489 176.3L179.939 195.834L165.668 160.38L165.668 160.365Z" fill="#ED4138"/>
</svg>
