<svg width="304" height="304" viewBox="0 0 304 304" fill="none" xmlns="http://www.w3.org/2000/svg">
<g filter="url(#filter0_d_131_1835)">
<path d="M178.141 26.7554C108.973 12.1666 41.0756 56.4107 26.4869 125.577C11.8982 194.744 56.1429 262.642 125.31 277.23C194.478 291.819 262.375 247.575 276.964 178.408C291.553 109.241 247.308 41.3442 178.141 26.7554Z" fill="white"/>
<path d="M121.673 184.747L164.471 167.895L189.032 185.756L186.193 231.668L159.489 212.249L162.05 191.585L143.565 200.67L121.679 184.756L121.673 184.747Z" fill="#ED4138"/>
<path d="M136.283 171.681C129.07 181.6 113.344 179.866 94.6016 166.237C75.8587 152.608 69.3591 138.19 76.5714 128.271C83.9618 118.11 99.5476 119.529 118.524 133.335C137.501 147.132 143.664 161.527 136.274 171.687L136.283 171.681ZM99.436 144.749C97.7347 147.085 99.4382 150.656 103.684 153.746C107.93 156.836 111.852 157.353 113.553 155.017C115.322 152.583 113.687 148.915 109.44 145.833C105.194 142.743 101.204 142.323 99.4344 144.756L99.436 144.749Z" fill="#ED4138"/>
<path d="M195.715 157.988L210.723 168.897L199.344 184.544L145.087 145.091L156.466 129.443L171.473 140.352L185.65 120.859L209.894 138.486L195.717 157.98L195.715 157.988Z" fill="#ED4138"/>
<path d="M142.728 143.385L95.3578 108.938L104.911 95.7992L128.142 112.688L129.385 110.979L114.917 100.454L118.88 95.0087L133.348 105.534L134.591 103.824L110.616 86.3886L120.17 73.25L168.285 108.236L142.73 143.377L142.728 143.385Z" fill="#ED4138"/>
</g>
<defs>
<filter id="filter0_d_131_1835" x="7.92508" y="8.19388" width="287.6" height="287.598" filterUnits="userSpaceOnUse" color-interpolation-filters="sRGB">
<feFlood flood-opacity="0" result="BackgroundImageFix"/>
<feColorMatrix in="SourceAlpha" type="matrix" values="0 0 0 0 0 0 0 0 0 0 0 0 0 0 0 0 0 0 127 0" result="hardAlpha"/>
<feOffset/>
<feGaussianBlur stdDeviation="7.89"/>
<feColorMatrix type="matrix" values="0 0 0 0 0 0 0 0 0 0 0 0 0 0 0 0 0 0 0.1 0"/>
<feBlend mode="normal" in2="BackgroundImageFix" result="effect1_dropShadow_131_1835"/>
<feBlend mode="normal" in="SourceGraphic" in2="effect1_dropShadow_131_1835" result="shape"/>
</filter>
</defs>
</svg>
