<svg width="285" height="286" viewBox="0 0 285 286" fill="none" xmlns="http://www.w3.org/2000/svg">
<path d="M213.464 217.551L209.722 179.262L243.89 161.43L218.347 132.727L235.57 98.2539L197.982 90.0985L191.682 52.1549L156.405 67.6638L128.992 40.742L109.5 73.9904L71.4433 68.3738L75.1814 106.663L41.018 124.495L66.5583 153.2L49.3377 187.671L86.926 195.827L93.2251 233.77L128.5 218.263L155.916 245.183L175.403 211.935L213.464 217.551Z" fill="#EF4239"/>
<path d="M163.134 123.175L134.901 128.76L121.83 115.03L128.794 87.1045L143.007 102.034L139.083 114.461L151.483 110.937L163.132 123.173L163.134 123.175Z" fill="#282560"/>
<path d="M152.663 129.583C158.228 124.286 167.699 127.112 177.673 137.588C187.647 148.065 190.004 157.664 184.439 162.961C178.875 168.258 169.319 165.77 159.217 155.159C149.115 144.547 146.966 135.008 152.663 129.583ZM172.255 150.269C173.565 149.021 172.924 146.632 170.665 144.26C168.407 141.887 166.054 141.128 164.742 142.377C163.43 143.626 163.966 146.115 166.224 148.487C168.483 150.86 170.891 151.567 172.255 150.269Z" fill="#282560"/>
<path d="M114.562 131.369L106.576 122.98L115.353 114.625L144.229 144.956L135.452 153.311L127.465 144.922L116.533 155.33L103.63 141.777L114.562 131.369Z" fill="#282560"/>
<path d="M145.481 146.274L170.69 172.755L163.323 179.769L150.96 166.783L150.002 167.695L157.703 175.784L154.649 178.692L146.948 170.603L145.99 171.514L158.75 184.918L151.383 191.932L125.776 165.034L145.484 146.271L145.481 146.274Z" fill="#282560"/>
</svg>
