<svg width="234" height="234" viewBox="0 0 234 234" fill="none" xmlns="http://www.w3.org/2000/svg">
<g filter="url(#filter0_d_229_2453)">
<path d="M204.941 144.854C220.463 96.147 193.561 44.0795 144.854 28.5581C96.1476 13.0367 44.0804 39.939 28.5588 88.646C13.0373 137.353 39.9391 189.42 88.6457 204.942C137.352 220.463 189.42 193.561 204.941 144.854Z" fill="white"/>
<path d="M86.1951 106.742L110.076 129.893L105.653 151.405L74.5751 163.253L79.3838 139.863L93.7571 135.374L82.2521 125.915L86.1951 106.742Z" fill="#282560"/>
<path d="M99.1701 112.459C90.4818 110.67 86.9306 99.8018 90.3034 83.3813C93.6798 66.968 101.236 58.3757 109.924 60.1643C118.818 61.9946 122.545 72.6826 119.125 89.3065C115.705 105.93 108.065 114.284 99.1718 112.453L99.1701 112.459ZM105.9 80.1499C103.855 79.7287 102.012 81.9166 101.247 85.6346C100.481 89.3526 101.315 92.0922 103.359 92.5135C105.404 92.9347 107.414 90.7766 108.178 87.064C108.943 83.346 108.026 80.5914 105.9 80.1499Z" fill="#282560"/>
<path d="M125.943 147.508L123.242 160.653L109.539 157.833L119.31 110.309L133.014 113.129L130.313 126.274L147.386 129.784L143.016 151.018L125.943 147.508Z" fill="#282560"/>
<path d="M119.737 108.249L128.27 66.7605L139.773 69.1274L135.588 89.4693L137.085 89.775L139.689 77.1011L144.459 78.084L141.855 90.758L143.352 91.0637L147.671 70.0617L159.175 72.4286L150.51 114.572L119.733 108.242L119.737 108.249Z" fill="#282560"/>
</g>
<defs>
<filter id="filter0_d_229_2453" x="8.38406" y="8.38357" width="216.732" height="216.733" filterUnits="userSpaceOnUse" color-interpolation-filters="sRGB">
<feFlood flood-opacity="0" result="BackgroundImageFix"/>
<feColorMatrix in="SourceAlpha" type="matrix" values="0 0 0 0 0 0 0 0 0 0 0 0 0 0 0 0 0 0 127 0" result="hardAlpha"/>
<feOffset/>
<feGaussianBlur stdDeviation="7.89"/>
<feColorMatrix type="matrix" values="0 0 0 0 0 0 0 0 0 0 0 0 0 0 0 0 0 0 0.1 0"/>
<feBlend mode="normal" in2="BackgroundImageFix" result="effect1_dropShadow_229_2453"/>
<feBlend mode="normal" in="SourceGraphic" in2="effect1_dropShadow_229_2453" result="shape"/>
</filter>
</defs>
</svg>
